<mxfile host="65bd71144e">
    <diagram name="Page-1" id="MQpNgLz8ZXVfiLkk2540">
        <mxGraphModel dx="1903" dy="825" grid="1" gridSize="10" guides="1" tooltips="1" connect="1" arrows="1" fold="1" page="1" pageScale="1" pageWidth="827" pageHeight="1169" math="0" shadow="0">
            <root>
                <mxCell id="0"/>
                <mxCell id="1" parent="0"/>
                <mxCell id="rekhB66va6viN4RXd3Ok-108" value="&quot;posts&quot;" style="shape=table;startSize=30;container=1;collapsible=1;childLayout=tableLayout;fixedRows=1;rowLines=0;fontStyle=1;align=center;resizeLast=1;fillColor=#66CC00;" parent="1" vertex="1">
                    <mxGeometry x="1280" y="615" width="341" height="240" as="geometry">
                        <mxRectangle x="1280" y="615" width="80" height="30" as="alternateBounds"/>
                    </mxGeometry>
                </mxCell>
                <mxCell id="rekhB66va6viN4RXd3Ok-109" value="" style="shape=tableRow;horizontal=0;startSize=0;swimlaneHead=0;swimlaneBody=0;fillColor=none;collapsible=0;dropTarget=0;points=[[0,0.5],[1,0.5]];portConstraint=eastwest;strokeColor=inherit;top=0;left=0;right=0;bottom=1;" parent="rekhB66va6viN4RXd3Ok-108" vertex="1">
                    <mxGeometry y="30" width="341" height="30" as="geometry"/>
                </mxCell>
                <mxCell id="rekhB66va6viN4RXd3Ok-110" value="PK" style="shape=partialRectangle;overflow=hidden;connectable=0;fillColor=none;strokeColor=inherit;top=0;left=0;bottom=0;right=0;fontStyle=1;" parent="rekhB66va6viN4RXd3Ok-109" vertex="1">
                    <mxGeometry width="30" height="30" as="geometry">
                        <mxRectangle width="30" height="30" as="alternateBounds"/>
                    </mxGeometry>
                </mxCell>
                <mxCell id="rekhB66va6viN4RXd3Ok-111" value="(&quot;id&quot; integer NOT NULL  AUTOINCREMENT" style="shape=partialRectangle;overflow=hidden;connectable=0;fillColor=none;align=left;strokeColor=inherit;top=0;left=0;bottom=0;right=0;spacingLeft=6;fontStyle=5;" parent="rekhB66va6viN4RXd3Ok-109" vertex="1">
                    <mxGeometry x="30" width="311" height="30" as="geometry">
                        <mxRectangle width="311" height="30" as="alternateBounds"/>
                    </mxGeometry>
                </mxCell>
                <mxCell id="rekhB66va6viN4RXd3Ok-112" value="" style="shape=tableRow;horizontal=0;startSize=0;swimlaneHead=0;swimlaneBody=0;fillColor=none;collapsible=0;dropTarget=0;points=[[0,0.5],[1,0.5]];portConstraint=eastwest;strokeColor=inherit;top=0;left=0;right=0;bottom=0;" parent="rekhB66va6viN4RXd3Ok-108" vertex="1">
                    <mxGeometry y="60" width="341" height="30" as="geometry"/>
                </mxCell>
                <mxCell id="rekhB66va6viN4RXd3Ok-113" value="" style="shape=partialRectangle;overflow=hidden;connectable=0;fillColor=none;strokeColor=inherit;top=0;left=0;bottom=0;right=0;" parent="rekhB66va6viN4RXd3Ok-112" vertex="1">
                    <mxGeometry width="30" height="30" as="geometry">
                        <mxRectangle width="30" height="30" as="alternateBounds"/>
                    </mxGeometry>
                </mxCell>
                <mxCell id="rekhB66va6viN4RXd3Ok-114" value="&quot;content&quot; varchar(1764) NOT NULL, &quot;submitted&quot; datetime NOT NULL" style="shape=partialRectangle;overflow=hidden;connectable=0;fillColor=none;align=left;strokeColor=inherit;top=0;left=0;bottom=0;right=0;spacingLeft=6;" parent="rekhB66va6viN4RXd3Ok-112" vertex="1">
                    <mxGeometry x="30" width="311" height="30" as="geometry">
                        <mxRectangle width="311" height="30" as="alternateBounds"/>
                    </mxGeometry>
                </mxCell>
                <mxCell id="rekhB66va6viN4RXd3Ok-115" value="" style="shape=tableRow;horizontal=0;startSize=0;swimlaneHead=0;swimlaneBody=0;fillColor=none;collapsible=0;dropTarget=0;points=[[0,0.5],[1,0.5]];portConstraint=eastwest;strokeColor=inherit;top=0;left=0;right=0;bottom=0;" parent="rekhB66va6viN4RXd3Ok-108" vertex="1">
                    <mxGeometry y="90" width="341" height="30" as="geometry"/>
                </mxCell>
                <mxCell id="rekhB66va6viN4RXd3Ok-116" value="" style="shape=partialRectangle;overflow=hidden;connectable=0;fillColor=none;strokeColor=inherit;top=0;left=0;bottom=0;right=0;" parent="rekhB66va6viN4RXd3Ok-115" vertex="1">
                    <mxGeometry width="30" height="30" as="geometry">
                        <mxRectangle width="30" height="30" as="alternateBounds"/>
                    </mxGeometry>
                </mxCell>
                <mxCell id="rekhB66va6viN4RXd3Ok-117" value="&quot;published&quot; bool NOT NULL, &quot;author_id&quot; bigint NOT NULL REFERENCES" style="shape=partialRectangle;overflow=hidden;connectable=0;fillColor=none;align=left;strokeColor=inherit;top=0;left=0;bottom=0;right=0;spacingLeft=6;" parent="rekhB66va6viN4RXd3Ok-115" vertex="1">
                    <mxGeometry x="30" width="311" height="30" as="geometry">
                        <mxRectangle width="311" height="30" as="alternateBounds"/>
                    </mxGeometry>
                </mxCell>
                <mxCell id="rekhB66va6viN4RXd3Ok-118" value="" style="shape=tableRow;horizontal=0;startSize=0;swimlaneHead=0;swimlaneBody=0;fillColor=none;collapsible=0;dropTarget=0;points=[[0,0.5],[1,0.5]];portConstraint=eastwest;strokeColor=inherit;top=0;left=0;right=0;bottom=0;" parent="rekhB66va6viN4RXd3Ok-108" vertex="1">
                    <mxGeometry y="120" width="341" height="30" as="geometry"/>
                </mxCell>
                <mxCell id="rekhB66va6viN4RXd3Ok-119" value="" style="shape=partialRectangle;overflow=hidden;connectable=0;fillColor=none;strokeColor=inherit;top=0;left=0;bottom=0;right=0;" parent="rekhB66va6viN4RXd3Ok-118" vertex="1">
                    <mxGeometry width="30" height="30" as="geometry">
                        <mxRectangle width="30" height="30" as="alternateBounds"/>
                    </mxGeometry>
                </mxCell>
                <mxCell id="rekhB66va6viN4RXd3Ok-120" value="&quot;social_network_users&quot; (&quot;fameusers_ptr_id&quot;) DEFERRABLE INITIALLY DEFERRED" style="shape=partialRectangle;overflow=hidden;connectable=0;fillColor=none;align=left;strokeColor=inherit;top=0;left=0;bottom=0;right=0;spacingLeft=6;" parent="rekhB66va6viN4RXd3Ok-118" vertex="1">
                    <mxGeometry x="30" width="311" height="30" as="geometry">
                        <mxRectangle width="311" height="30" as="alternateBounds"/>
                    </mxGeometry>
                </mxCell>
                <mxCell id="rekhB66va6viN4RXd3Ok-121" value="" style="shape=tableRow;horizontal=0;startSize=0;swimlaneHead=0;swimlaneBody=0;fillColor=none;collapsible=0;dropTarget=0;points=[[0,0.5],[1,0.5]];portConstraint=eastwest;strokeColor=inherit;top=0;left=0;right=0;bottom=0;" parent="rekhB66va6viN4RXd3Ok-108" vertex="1">
                    <mxGeometry y="150" width="341" height="30" as="geometry"/>
                </mxCell>
                <mxCell id="rekhB66va6viN4RXd3Ok-122" value="" style="shape=partialRectangle;overflow=hidden;connectable=0;fillColor=none;strokeColor=inherit;top=0;left=0;bottom=0;right=0;" parent="rekhB66va6viN4RXd3Ok-121" vertex="1">
                    <mxGeometry width="30" height="30" as="geometry">
                        <mxRectangle width="30" height="30" as="alternateBounds"/>
                    </mxGeometry>
                </mxCell>
                <mxCell id="rekhB66va6viN4RXd3Ok-123" value="&quot;cites_id&quot; bigint NULL REFERENCES &quot;posts&quot; (&quot;id&quot;) DEFERRABLE INITIALLY DEFERRED" style="shape=partialRectangle;overflow=hidden;connectable=0;fillColor=none;align=left;strokeColor=inherit;top=0;left=0;bottom=0;right=0;spacingLeft=6;" parent="rekhB66va6viN4RXd3Ok-121" vertex="1">
                    <mxGeometry x="30" width="311" height="30" as="geometry">
                        <mxRectangle width="311" height="30" as="alternateBounds"/>
                    </mxGeometry>
                </mxCell>
                <mxCell id="rekhB66va6viN4RXd3Ok-124" value="" style="shape=tableRow;horizontal=0;startSize=0;swimlaneHead=0;swimlaneBody=0;fillColor=none;collapsible=0;dropTarget=0;points=[[0,0.5],[1,0.5]];portConstraint=eastwest;strokeColor=inherit;top=0;left=0;right=0;bottom=0;" parent="rekhB66va6viN4RXd3Ok-108" vertex="1">
                    <mxGeometry y="180" width="341" height="30" as="geometry"/>
                </mxCell>
                <mxCell id="rekhB66va6viN4RXd3Ok-125" value="" style="shape=partialRectangle;overflow=hidden;connectable=0;fillColor=none;strokeColor=inherit;top=0;left=0;bottom=0;right=0;" parent="rekhB66va6viN4RXd3Ok-124" vertex="1">
                    <mxGeometry width="30" height="30" as="geometry">
                        <mxRectangle width="30" height="30" as="alternateBounds"/>
                    </mxGeometry>
                </mxCell>
                <mxCell id="rekhB66va6viN4RXd3Ok-126" value="&quot;replies_to_id&quot; bigint NULL REFERENCES &quot;posts&quot; (&quot;id&quot;) DEFERRABLE INITIALLY DEFERRED);" style="shape=partialRectangle;overflow=hidden;connectable=0;fillColor=none;align=left;strokeColor=inherit;top=0;left=0;bottom=0;right=0;spacingLeft=6;" parent="rekhB66va6viN4RXd3Ok-124" vertex="1">
                    <mxGeometry x="30" width="311" height="30" as="geometry">
                        <mxRectangle width="311" height="30" as="alternateBounds"/>
                    </mxGeometry>
                </mxCell>
                <mxCell id="rekhB66va6viN4RXd3Ok-127" value="" style="shape=tableRow;horizontal=0;startSize=0;swimlaneHead=0;swimlaneBody=0;fillColor=none;collapsible=0;dropTarget=0;points=[[0,0.5],[1,0.5]];portConstraint=eastwest;strokeColor=inherit;top=0;left=0;right=0;bottom=0;" parent="rekhB66va6viN4RXd3Ok-108" vertex="1">
                    <mxGeometry y="210" width="341" height="30" as="geometry"/>
                </mxCell>
                <mxCell id="rekhB66va6viN4RXd3Ok-128" value="" style="shape=partialRectangle;overflow=hidden;connectable=0;fillColor=none;strokeColor=inherit;top=0;left=0;bottom=0;right=0;" parent="rekhB66va6viN4RXd3Ok-127" vertex="1">
                    <mxGeometry width="30" height="30" as="geometry">
                        <mxRectangle width="30" height="30" as="alternateBounds"/>
                    </mxGeometry>
                </mxCell>
                <mxCell id="rekhB66va6viN4RXd3Ok-129" value="" style="shape=partialRectangle;overflow=hidden;connectable=0;fillColor=none;align=left;strokeColor=inherit;top=0;left=0;bottom=0;right=0;spacingLeft=6;" parent="rekhB66va6viN4RXd3Ok-127" vertex="1">
                    <mxGeometry x="30" width="311" height="30" as="geometry">
                        <mxRectangle width="311" height="30" as="alternateBounds"/>
                    </mxGeometry>
                </mxCell>
                <mxCell id="4g2gMuMm-FKann9IZiOH-8" style="edgeStyle=orthogonalEdgeStyle;rounded=0;orthogonalLoop=1;jettySize=auto;html=1;exitX=1;exitY=0.5;exitDx=0;exitDy=0;curved=1;strokeColor=#66CC00;" parent="1" source="rekhB66va6viN4RXd3Ok-121" target="rekhB66va6viN4RXd3Ok-109" edge="1">
                    <mxGeometry relative="1" as="geometry"/>
                </mxCell>
                <mxCell id="4g2gMuMm-FKann9IZiOH-90" style="edgeStyle=orthogonalEdgeStyle;curved=1;rounded=0;orthogonalLoop=1;jettySize=auto;html=1;exitX=1;exitY=0.5;exitDx=0;exitDy=0;entryX=1;entryY=0.5;entryDx=0;entryDy=0;elbow=vertical;strokeColor=#009900;fillColor=#009900;shadow=1;" parent="1" source="rekhB66va6viN4RXd3Ok-221" target="rekhB66va6viN4RXd3Ok-215" edge="1">
                    <mxGeometry relative="1" as="geometry"/>
                </mxCell>
                <mxCell id="4g2gMuMm-FKann9IZiOH-9" style="edgeStyle=orthogonalEdgeStyle;rounded=0;orthogonalLoop=1;jettySize=auto;html=1;exitX=1;exitY=0.5;exitDx=0;exitDy=0;entryX=1;entryY=0.5;entryDx=0;entryDy=0;curved=1;strokeColor=#66CC00;" parent="1" source="rekhB66va6viN4RXd3Ok-124" target="rekhB66va6viN4RXd3Ok-109" edge="1">
                    <mxGeometry relative="1" as="geometry"/>
                </mxCell>
                <mxCell id="rekhB66va6viN4RXd3Ok-154" value="&quot;auth_group_permissions&quot;" style="shape=table;startSize=30;container=1;collapsible=1;childLayout=tableLayout;fixedRows=1;rowLines=0;fontStyle=1;align=center;resizeLast=1;" parent="1" vertex="1">
                    <mxGeometry x="660" y="1080" width="460" height="120" as="geometry"/>
                </mxCell>
                <mxCell id="rekhB66va6viN4RXd3Ok-155" value="" style="shape=tableRow;horizontal=0;startSize=0;swimlaneHead=0;swimlaneBody=0;fillColor=none;collapsible=0;dropTarget=0;points=[[0,0.5],[1,0.5]];portConstraint=eastwest;strokeColor=inherit;top=0;left=0;right=0;bottom=1;" parent="rekhB66va6viN4RXd3Ok-154" vertex="1">
                    <mxGeometry y="30" width="460" height="30" as="geometry"/>
                </mxCell>
                <mxCell id="rekhB66va6viN4RXd3Ok-156" value="PK" style="shape=partialRectangle;overflow=hidden;connectable=0;fillColor=none;strokeColor=inherit;top=0;left=0;bottom=0;right=0;fontStyle=1;" parent="rekhB66va6viN4RXd3Ok-155" vertex="1">
                    <mxGeometry width="30" height="30" as="geometry">
                        <mxRectangle width="30" height="30" as="alternateBounds"/>
                    </mxGeometry>
                </mxCell>
                <mxCell id="rekhB66va6viN4RXd3Ok-157" value="&quot;id&quot; integer NOT NULL  AUTOINCREMENT" style="shape=partialRectangle;overflow=hidden;connectable=0;fillColor=none;align=left;strokeColor=inherit;top=0;left=0;bottom=0;right=0;spacingLeft=6;fontStyle=5;" parent="rekhB66va6viN4RXd3Ok-155" vertex="1">
                    <mxGeometry x="30" width="430" height="30" as="geometry">
                        <mxRectangle width="430" height="30" as="alternateBounds"/>
                    </mxGeometry>
                </mxCell>
                <mxCell id="rekhB66va6viN4RXd3Ok-158" value="" style="shape=tableRow;horizontal=0;startSize=0;swimlaneHead=0;swimlaneBody=0;fillColor=none;collapsible=0;dropTarget=0;points=[[0,0.5],[1,0.5]];portConstraint=eastwest;strokeColor=inherit;top=0;left=0;right=0;bottom=0;" parent="rekhB66va6viN4RXd3Ok-154" vertex="1">
                    <mxGeometry y="60" width="460" height="30" as="geometry"/>
                </mxCell>
                <mxCell id="rekhB66va6viN4RXd3Ok-159" value="" style="shape=partialRectangle;overflow=hidden;connectable=0;fillColor=none;strokeColor=inherit;top=0;left=0;bottom=0;right=0;" parent="rekhB66va6viN4RXd3Ok-158" vertex="1">
                    <mxGeometry width="30" height="30" as="geometry">
                        <mxRectangle width="30" height="30" as="alternateBounds"/>
                    </mxGeometry>
                </mxCell>
                <mxCell id="rekhB66va6viN4RXd3Ok-160" value="&quot;group_id&quot; integer NOT NULL REFERENCES &quot;auth_group&quot; (&quot;id&quot;) DEFERRABLE INITIALLY DEFERRED" style="shape=partialRectangle;overflow=hidden;connectable=0;fillColor=none;align=left;strokeColor=inherit;top=0;left=0;bottom=0;right=0;spacingLeft=6;" parent="rekhB66va6viN4RXd3Ok-158" vertex="1">
                    <mxGeometry x="30" width="430" height="30" as="geometry">
                        <mxRectangle width="430" height="30" as="alternateBounds"/>
                    </mxGeometry>
                </mxCell>
                <mxCell id="rekhB66va6viN4RXd3Ok-161" value="" style="shape=tableRow;horizontal=0;startSize=0;swimlaneHead=0;swimlaneBody=0;fillColor=none;collapsible=0;dropTarget=0;points=[[0,0.5],[1,0.5]];portConstraint=eastwest;strokeColor=inherit;top=0;left=0;right=0;bottom=0;" parent="rekhB66va6viN4RXd3Ok-154" vertex="1">
                    <mxGeometry y="90" width="460" height="30" as="geometry"/>
                </mxCell>
                <mxCell id="rekhB66va6viN4RXd3Ok-162" value="" style="shape=partialRectangle;overflow=hidden;connectable=0;fillColor=none;strokeColor=inherit;top=0;left=0;bottom=0;right=0;" parent="rekhB66va6viN4RXd3Ok-161" vertex="1">
                    <mxGeometry width="30" height="30" as="geometry">
                        <mxRectangle width="30" height="30" as="alternateBounds"/>
                    </mxGeometry>
                </mxCell>
                <mxCell id="rekhB66va6viN4RXd3Ok-163" value="&quot;permission_id&quot; integer NOT NULL REFERENCES &quot;auth_permission&quot; (&quot;id&quot;) DEFERRABLE INITIALLY DEFERRED" style="shape=partialRectangle;overflow=hidden;connectable=0;fillColor=none;align=left;strokeColor=inherit;top=0;left=0;bottom=0;right=0;spacingLeft=6;" parent="rekhB66va6viN4RXd3Ok-161" vertex="1">
                    <mxGeometry x="30" width="430" height="30" as="geometry">
                        <mxRectangle width="430" height="30" as="alternateBounds"/>
                    </mxGeometry>
                </mxCell>
                <mxCell id="rekhB66va6viN4RXd3Ok-164" value="&quot;auth_permission&quot;" style="shape=table;startSize=30;container=1;collapsible=1;childLayout=tableLayout;fixedRows=1;rowLines=0;fontStyle=1;align=center;resizeLast=1;" parent="1" vertex="1">
                    <mxGeometry x="610" y="1230" width="510" height="150" as="geometry"/>
                </mxCell>
                <mxCell id="rekhB66va6viN4RXd3Ok-165" value="" style="shape=tableRow;horizontal=0;startSize=0;swimlaneHead=0;swimlaneBody=0;fillColor=none;collapsible=0;dropTarget=0;points=[[0,0.5],[1,0.5]];portConstraint=eastwest;strokeColor=inherit;top=0;left=0;right=0;bottom=1;" parent="rekhB66va6viN4RXd3Ok-164" vertex="1">
                    <mxGeometry y="30" width="510" height="30" as="geometry"/>
                </mxCell>
                <mxCell id="rekhB66va6viN4RXd3Ok-166" value="PK" style="shape=partialRectangle;overflow=hidden;connectable=0;fillColor=none;strokeColor=inherit;top=0;left=0;bottom=0;right=0;fontStyle=1;" parent="rekhB66va6viN4RXd3Ok-165" vertex="1">
                    <mxGeometry width="30" height="30" as="geometry">
                        <mxRectangle width="30" height="30" as="alternateBounds"/>
                    </mxGeometry>
                </mxCell>
                <mxCell id="rekhB66va6viN4RXd3Ok-167" value="&quot;id&quot; integer NOT NULL  AUTOINCREMENT" style="shape=partialRectangle;overflow=hidden;connectable=0;fillColor=none;align=left;strokeColor=inherit;top=0;left=0;bottom=0;right=0;spacingLeft=6;fontStyle=5;" parent="rekhB66va6viN4RXd3Ok-165" vertex="1">
                    <mxGeometry x="30" width="480" height="30" as="geometry">
                        <mxRectangle width="480" height="30" as="alternateBounds"/>
                    </mxGeometry>
                </mxCell>
                <mxCell id="rekhB66va6viN4RXd3Ok-168" value="" style="shape=tableRow;horizontal=0;startSize=0;swimlaneHead=0;swimlaneBody=0;fillColor=none;collapsible=0;dropTarget=0;points=[[0,0.5],[1,0.5]];portConstraint=eastwest;strokeColor=inherit;top=0;left=0;right=0;bottom=0;" parent="rekhB66va6viN4RXd3Ok-164" vertex="1">
                    <mxGeometry y="60" width="510" height="30" as="geometry"/>
                </mxCell>
                <mxCell id="rekhB66va6viN4RXd3Ok-169" value="" style="shape=partialRectangle;overflow=hidden;connectable=0;fillColor=none;strokeColor=inherit;top=0;left=0;bottom=0;right=0;" parent="rekhB66va6viN4RXd3Ok-168" vertex="1">
                    <mxGeometry width="30" height="30" as="geometry">
                        <mxRectangle width="30" height="30" as="alternateBounds"/>
                    </mxGeometry>
                </mxCell>
                <mxCell id="rekhB66va6viN4RXd3Ok-170" value="&quot;content_type_id&quot; integer NOT NULL REFERENCES &quot;django_content_type&quot; (&quot;id&quot;) DEFERRABLE INITIALLY DEFERRED" style="shape=partialRectangle;overflow=hidden;connectable=0;fillColor=none;align=left;strokeColor=inherit;top=0;left=0;bottom=0;right=0;spacingLeft=6;" parent="rekhB66va6viN4RXd3Ok-168" vertex="1">
                    <mxGeometry x="30" width="480" height="30" as="geometry">
                        <mxRectangle width="480" height="30" as="alternateBounds"/>
                    </mxGeometry>
                </mxCell>
                <mxCell id="rekhB66va6viN4RXd3Ok-171" value="" style="shape=tableRow;horizontal=0;startSize=0;swimlaneHead=0;swimlaneBody=0;fillColor=none;collapsible=0;dropTarget=0;points=[[0,0.5],[1,0.5]];portConstraint=eastwest;strokeColor=inherit;top=0;left=0;right=0;bottom=0;" parent="rekhB66va6viN4RXd3Ok-164" vertex="1">
                    <mxGeometry y="90" width="510" height="30" as="geometry"/>
                </mxCell>
                <mxCell id="rekhB66va6viN4RXd3Ok-172" value="" style="shape=partialRectangle;overflow=hidden;connectable=0;fillColor=none;strokeColor=inherit;top=0;left=0;bottom=0;right=0;" parent="rekhB66va6viN4RXd3Ok-171" vertex="1">
                    <mxGeometry width="30" height="30" as="geometry">
                        <mxRectangle width="30" height="30" as="alternateBounds"/>
                    </mxGeometry>
                </mxCell>
                <mxCell id="rekhB66va6viN4RXd3Ok-173" value="&quot;codename&quot; varchar(100) NOT NULL" style="shape=partialRectangle;overflow=hidden;connectable=0;fillColor=none;align=left;strokeColor=inherit;top=0;left=0;bottom=0;right=0;spacingLeft=6;" parent="rekhB66va6viN4RXd3Ok-171" vertex="1">
                    <mxGeometry x="30" width="480" height="30" as="geometry">
                        <mxRectangle width="480" height="30" as="alternateBounds"/>
                    </mxGeometry>
                </mxCell>
                <mxCell id="rekhB66va6viN4RXd3Ok-174" value="" style="shape=tableRow;horizontal=0;startSize=0;swimlaneHead=0;swimlaneBody=0;fillColor=none;collapsible=0;dropTarget=0;points=[[0,0.5],[1,0.5]];portConstraint=eastwest;strokeColor=inherit;top=0;left=0;right=0;bottom=0;" parent="rekhB66va6viN4RXd3Ok-164" vertex="1">
                    <mxGeometry y="120" width="510" height="30" as="geometry"/>
                </mxCell>
                <mxCell id="rekhB66va6viN4RXd3Ok-175" value="" style="shape=partialRectangle;overflow=hidden;connectable=0;fillColor=none;strokeColor=inherit;top=0;left=0;bottom=0;right=0;" parent="rekhB66va6viN4RXd3Ok-174" vertex="1">
                    <mxGeometry width="30" height="30" as="geometry">
                        <mxRectangle width="30" height="30" as="alternateBounds"/>
                    </mxGeometry>
                </mxCell>
                <mxCell id="rekhB66va6viN4RXd3Ok-176" value="&quot;name&quot; varchar(255) NOT NULL" style="shape=partialRectangle;overflow=hidden;connectable=0;fillColor=none;align=left;strokeColor=inherit;top=0;left=0;bottom=0;right=0;spacingLeft=6;" parent="rekhB66va6viN4RXd3Ok-174" vertex="1">
                    <mxGeometry x="30" width="480" height="30" as="geometry">
                        <mxRectangle width="480" height="30" as="alternateBounds"/>
                    </mxGeometry>
                </mxCell>
                <mxCell id="rekhB66va6viN4RXd3Ok-177" value="&quot;auth_group&quot;" style="shape=table;startSize=30;container=1;collapsible=1;childLayout=tableLayout;fixedRows=1;rowLines=0;fontStyle=1;align=center;resizeLast=1;" parent="1" vertex="1">
                    <mxGeometry x="840" y="950" width="280" height="90" as="geometry"/>
                </mxCell>
                <mxCell id="rekhB66va6viN4RXd3Ok-178" value="" style="shape=tableRow;horizontal=0;startSize=0;swimlaneHead=0;swimlaneBody=0;fillColor=none;collapsible=0;dropTarget=0;points=[[0,0.5],[1,0.5]];portConstraint=eastwest;strokeColor=inherit;top=0;left=0;right=0;bottom=1;" parent="rekhB66va6viN4RXd3Ok-177" vertex="1">
                    <mxGeometry y="30" width="280" height="30" as="geometry"/>
                </mxCell>
                <mxCell id="rekhB66va6viN4RXd3Ok-179" value="PK" style="shape=partialRectangle;overflow=hidden;connectable=0;fillColor=none;strokeColor=inherit;top=0;left=0;bottom=0;right=0;fontStyle=1;" parent="rekhB66va6viN4RXd3Ok-178" vertex="1">
                    <mxGeometry width="30" height="30" as="geometry">
                        <mxRectangle width="30" height="30" as="alternateBounds"/>
                    </mxGeometry>
                </mxCell>
                <mxCell id="rekhB66va6viN4RXd3Ok-180" value="&quot;id&quot; integer NOT NULL  AUTOINCREMENT" style="shape=partialRectangle;overflow=hidden;connectable=0;fillColor=none;align=left;strokeColor=inherit;top=0;left=0;bottom=0;right=0;spacingLeft=6;fontStyle=5;" parent="rekhB66va6viN4RXd3Ok-178" vertex="1">
                    <mxGeometry x="30" width="250" height="30" as="geometry">
                        <mxRectangle width="250" height="30" as="alternateBounds"/>
                    </mxGeometry>
                </mxCell>
                <mxCell id="rekhB66va6viN4RXd3Ok-181" value="" style="shape=tableRow;horizontal=0;startSize=0;swimlaneHead=0;swimlaneBody=0;fillColor=none;collapsible=0;dropTarget=0;points=[[0,0.5],[1,0.5]];portConstraint=eastwest;strokeColor=inherit;top=0;left=0;right=0;bottom=0;" parent="rekhB66va6viN4RXd3Ok-177" vertex="1">
                    <mxGeometry y="60" width="280" height="30" as="geometry"/>
                </mxCell>
                <mxCell id="rekhB66va6viN4RXd3Ok-182" value="" style="shape=partialRectangle;overflow=hidden;connectable=0;fillColor=none;strokeColor=inherit;top=0;left=0;bottom=0;right=0;" parent="rekhB66va6viN4RXd3Ok-181" vertex="1">
                    <mxGeometry width="30" height="30" as="geometry">
                        <mxRectangle width="30" height="30" as="alternateBounds"/>
                    </mxGeometry>
                </mxCell>
                <mxCell id="rekhB66va6viN4RXd3Ok-183" value="&quot;name&quot; varchar(150) NOT NULL UNIQUE" style="shape=partialRectangle;overflow=hidden;connectable=0;fillColor=none;align=left;strokeColor=inherit;top=0;left=0;bottom=0;right=0;spacingLeft=6;" parent="rekhB66va6viN4RXd3Ok-181" vertex="1">
                    <mxGeometry x="30" width="250" height="30" as="geometry">
                        <mxRectangle width="250" height="30" as="alternateBounds"/>
                    </mxGeometry>
                </mxCell>
                <mxCell id="rekhB66va6viN4RXd3Ok-184" value="&quot;fame_levels&quot;" style="shape=table;startSize=30;container=1;collapsible=1;childLayout=tableLayout;fixedRows=1;rowLines=0;fontStyle=1;align=center;resizeLast=1;" parent="1" vertex="1">
                    <mxGeometry x="80" y="920" width="280" height="120" as="geometry">
                        <mxRectangle x="440" y="660" width="110" height="30" as="alternateBounds"/>
                    </mxGeometry>
                </mxCell>
                <mxCell id="rekhB66va6viN4RXd3Ok-185" value="" style="shape=tableRow;horizontal=0;startSize=0;swimlaneHead=0;swimlaneBody=0;fillColor=none;collapsible=0;dropTarget=0;points=[[0,0.5],[1,0.5]];portConstraint=eastwest;strokeColor=inherit;top=0;left=0;right=0;bottom=1;" parent="rekhB66va6viN4RXd3Ok-184" vertex="1">
                    <mxGeometry y="30" width="280" height="30" as="geometry"/>
                </mxCell>
                <mxCell id="rekhB66va6viN4RXd3Ok-186" value="PK" style="shape=partialRectangle;overflow=hidden;connectable=0;fillColor=none;strokeColor=inherit;top=0;left=0;bottom=0;right=0;fontStyle=1;" parent="rekhB66va6viN4RXd3Ok-185" vertex="1">
                    <mxGeometry width="30" height="30" as="geometry">
                        <mxRectangle width="30" height="30" as="alternateBounds"/>
                    </mxGeometry>
                </mxCell>
                <mxCell id="rekhB66va6viN4RXd3Ok-187" value="&quot;id&quot; integer NOT NULL  AUTOINCREMENT" style="shape=partialRectangle;overflow=hidden;connectable=0;fillColor=none;align=left;strokeColor=inherit;top=0;left=0;bottom=0;right=0;spacingLeft=6;fontStyle=5;" parent="rekhB66va6viN4RXd3Ok-185" vertex="1">
                    <mxGeometry x="30" width="250" height="30" as="geometry">
                        <mxRectangle width="250" height="30" as="alternateBounds"/>
                    </mxGeometry>
                </mxCell>
                <mxCell id="rekhB66va6viN4RXd3Ok-188" value="" style="shape=tableRow;horizontal=0;startSize=0;swimlaneHead=0;swimlaneBody=0;fillColor=none;collapsible=0;dropTarget=0;points=[[0,0.5],[1,0.5]];portConstraint=eastwest;strokeColor=inherit;top=0;left=0;right=0;bottom=0;" parent="rekhB66va6viN4RXd3Ok-184" vertex="1">
                    <mxGeometry y="60" width="280" height="30" as="geometry"/>
                </mxCell>
                <mxCell id="rekhB66va6viN4RXd3Ok-189" value="" style="shape=partialRectangle;overflow=hidden;connectable=0;fillColor=none;strokeColor=inherit;top=0;left=0;bottom=0;right=0;" parent="rekhB66va6viN4RXd3Ok-188" vertex="1">
                    <mxGeometry width="30" height="30" as="geometry">
                        <mxRectangle width="30" height="30" as="alternateBounds"/>
                    </mxGeometry>
                </mxCell>
                <mxCell id="rekhB66va6viN4RXd3Ok-190" value="&quot;name&quot; varchar(42) NOT NULL UNIQUE" style="shape=partialRectangle;overflow=hidden;connectable=0;fillColor=none;align=left;strokeColor=inherit;top=0;left=0;bottom=0;right=0;spacingLeft=6;" parent="rekhB66va6viN4RXd3Ok-188" vertex="1">
                    <mxGeometry x="30" width="250" height="30" as="geometry">
                        <mxRectangle width="250" height="30" as="alternateBounds"/>
                    </mxGeometry>
                </mxCell>
                <mxCell id="rekhB66va6viN4RXd3Ok-191" value="" style="shape=tableRow;horizontal=0;startSize=0;swimlaneHead=0;swimlaneBody=0;fillColor=none;collapsible=0;dropTarget=0;points=[[0,0.5],[1,0.5]];portConstraint=eastwest;strokeColor=inherit;top=0;left=0;right=0;bottom=0;" parent="rekhB66va6viN4RXd3Ok-184" vertex="1">
                    <mxGeometry y="90" width="280" height="30" as="geometry"/>
                </mxCell>
                <mxCell id="rekhB66va6viN4RXd3Ok-192" value="" style="shape=partialRectangle;overflow=hidden;connectable=0;fillColor=none;strokeColor=inherit;top=0;left=0;bottom=0;right=0;" parent="rekhB66va6viN4RXd3Ok-191" vertex="1">
                    <mxGeometry width="30" height="30" as="geometry">
                        <mxRectangle width="30" height="30" as="alternateBounds"/>
                    </mxGeometry>
                </mxCell>
                <mxCell id="rekhB66va6viN4RXd3Ok-193" value="&quot;numeric_value&quot; integer NOT NULL" style="shape=partialRectangle;overflow=hidden;connectable=0;fillColor=none;align=left;strokeColor=inherit;top=0;left=0;bottom=0;right=0;spacingLeft=6;" parent="rekhB66va6viN4RXd3Ok-191" vertex="1">
                    <mxGeometry x="30" width="250" height="30" as="geometry">
                        <mxRectangle width="250" height="30" as="alternateBounds"/>
                    </mxGeometry>
                </mxCell>
                <mxCell id="rekhB66va6viN4RXd3Ok-194" value="&quot;fame_users_groups&quot;" style="shape=table;startSize=30;container=1;collapsible=1;childLayout=tableLayout;fixedRows=1;rowLines=0;fontStyle=1;align=center;resizeLast=1;" parent="1" vertex="1">
                    <mxGeometry x="1290" y="900" width="410" height="120" as="geometry">
                        <mxRectangle x="1290" y="900" width="160" height="30" as="alternateBounds"/>
                    </mxGeometry>
                </mxCell>
                <mxCell id="rekhB66va6viN4RXd3Ok-195" value="" style="shape=tableRow;horizontal=0;startSize=0;swimlaneHead=0;swimlaneBody=0;fillColor=none;collapsible=0;dropTarget=0;points=[[0,0.5],[1,0.5]];portConstraint=eastwest;strokeColor=inherit;top=0;left=0;right=0;bottom=1;" parent="rekhB66va6viN4RXd3Ok-194" vertex="1">
                    <mxGeometry y="30" width="410" height="30" as="geometry"/>
                </mxCell>
                <mxCell id="rekhB66va6viN4RXd3Ok-196" value="PK" style="shape=partialRectangle;overflow=hidden;connectable=0;fillColor=none;strokeColor=inherit;top=0;left=0;bottom=0;right=0;fontStyle=1;" parent="rekhB66va6viN4RXd3Ok-195" vertex="1">
                    <mxGeometry width="30" height="30" as="geometry">
                        <mxRectangle width="30" height="30" as="alternateBounds"/>
                    </mxGeometry>
                </mxCell>
                <mxCell id="rekhB66va6viN4RXd3Ok-197" value="&quot;id&quot; integer NOT NULL  AUTOINCREMENT" style="shape=partialRectangle;overflow=hidden;connectable=0;fillColor=none;align=left;strokeColor=inherit;top=0;left=0;bottom=0;right=0;spacingLeft=6;fontStyle=5;" parent="rekhB66va6viN4RXd3Ok-195" vertex="1">
                    <mxGeometry x="30" width="380" height="30" as="geometry">
                        <mxRectangle width="380" height="30" as="alternateBounds"/>
                    </mxGeometry>
                </mxCell>
                <mxCell id="rekhB66va6viN4RXd3Ok-198" value="" style="shape=tableRow;horizontal=0;startSize=0;swimlaneHead=0;swimlaneBody=0;fillColor=none;collapsible=0;dropTarget=0;points=[[0,0.5],[1,0.5]];portConstraint=eastwest;strokeColor=inherit;top=0;left=0;right=0;bottom=0;" parent="rekhB66va6viN4RXd3Ok-194" vertex="1">
                    <mxGeometry y="60" width="410" height="30" as="geometry"/>
                </mxCell>
                <mxCell id="rekhB66va6viN4RXd3Ok-199" value="" style="shape=partialRectangle;overflow=hidden;connectable=0;fillColor=none;strokeColor=inherit;top=0;left=0;bottom=0;right=0;" parent="rekhB66va6viN4RXd3Ok-198" vertex="1">
                    <mxGeometry width="30" height="30" as="geometry">
                        <mxRectangle width="30" height="30" as="alternateBounds"/>
                    </mxGeometry>
                </mxCell>
                <mxCell id="rekhB66va6viN4RXd3Ok-200" value="&quot;fameusers_id&quot; bigint NOT NULL REFERENCES &quot;fame_users&quot; (&quot;id&quot;) DEFERRABLE INITIALLY DEFERRED" style="shape=partialRectangle;overflow=hidden;connectable=0;fillColor=none;align=left;strokeColor=inherit;top=0;left=0;bottom=0;right=0;spacingLeft=6;" parent="rekhB66va6viN4RXd3Ok-198" vertex="1">
                    <mxGeometry x="30" width="380" height="30" as="geometry">
                        <mxRectangle width="380" height="30" as="alternateBounds"/>
                    </mxGeometry>
                </mxCell>
                <mxCell id="rekhB66va6viN4RXd3Ok-201" value="" style="shape=tableRow;horizontal=0;startSize=0;swimlaneHead=0;swimlaneBody=0;fillColor=none;collapsible=0;dropTarget=0;points=[[0,0.5],[1,0.5]];portConstraint=eastwest;strokeColor=inherit;top=0;left=0;right=0;bottom=0;" parent="rekhB66va6viN4RXd3Ok-194" vertex="1">
                    <mxGeometry y="90" width="410" height="30" as="geometry"/>
                </mxCell>
                <mxCell id="rekhB66va6viN4RXd3Ok-202" value="" style="shape=partialRectangle;overflow=hidden;connectable=0;fillColor=none;strokeColor=inherit;top=0;left=0;bottom=0;right=0;" parent="rekhB66va6viN4RXd3Ok-201" vertex="1">
                    <mxGeometry width="30" height="30" as="geometry">
                        <mxRectangle width="30" height="30" as="alternateBounds"/>
                    </mxGeometry>
                </mxCell>
                <mxCell id="rekhB66va6viN4RXd3Ok-203" value="&quot;group_id&quot; integer NOT NULL REFERENCES &quot;auth_group&quot; (&quot;id&quot;) DEFERRABLE INITIALLY DEFERRED" style="shape=partialRectangle;overflow=hidden;connectable=0;fillColor=none;align=left;strokeColor=inherit;top=0;left=0;bottom=0;right=0;spacingLeft=6;" parent="rekhB66va6viN4RXd3Ok-201" vertex="1">
                    <mxGeometry x="30" width="380" height="30" as="geometry">
                        <mxRectangle width="380" height="30" as="alternateBounds"/>
                    </mxGeometry>
                </mxCell>
                <mxCell id="rekhB66va6viN4RXd3Ok-204" value="&quot;fame_users_user_permissions&quot;" style="shape=table;startSize=30;container=1;collapsible=1;childLayout=tableLayout;fixedRows=1;rowLines=0;fontStyle=1;align=center;resizeLast=1;" parent="1" vertex="1">
                    <mxGeometry x="1280" y="1040" width="440" height="120" as="geometry"/>
                </mxCell>
                <mxCell id="rekhB66va6viN4RXd3Ok-205" value="" style="shape=tableRow;horizontal=0;startSize=0;swimlaneHead=0;swimlaneBody=0;fillColor=none;collapsible=0;dropTarget=0;points=[[0,0.5],[1,0.5]];portConstraint=eastwest;strokeColor=inherit;top=0;left=0;right=0;bottom=1;" parent="rekhB66va6viN4RXd3Ok-204" vertex="1">
                    <mxGeometry y="30" width="440" height="30" as="geometry"/>
                </mxCell>
                <mxCell id="rekhB66va6viN4RXd3Ok-206" value="PK" style="shape=partialRectangle;overflow=hidden;connectable=0;fillColor=none;strokeColor=inherit;top=0;left=0;bottom=0;right=0;fontStyle=1;" parent="rekhB66va6viN4RXd3Ok-205" vertex="1">
                    <mxGeometry width="30" height="30" as="geometry">
                        <mxRectangle width="30" height="30" as="alternateBounds"/>
                    </mxGeometry>
                </mxCell>
                <mxCell id="rekhB66va6viN4RXd3Ok-207" value="&quot;id&quot; integer NOT NULL  AUTOINCREMENT" style="shape=partialRectangle;overflow=hidden;connectable=0;fillColor=none;align=left;strokeColor=inherit;top=0;left=0;bottom=0;right=0;spacingLeft=6;fontStyle=5;" parent="rekhB66va6viN4RXd3Ok-205" vertex="1">
                    <mxGeometry x="30" width="410" height="30" as="geometry">
                        <mxRectangle width="410" height="30" as="alternateBounds"/>
                    </mxGeometry>
                </mxCell>
                <mxCell id="rekhB66va6viN4RXd3Ok-208" value="" style="shape=tableRow;horizontal=0;startSize=0;swimlaneHead=0;swimlaneBody=0;fillColor=none;collapsible=0;dropTarget=0;points=[[0,0.5],[1,0.5]];portConstraint=eastwest;strokeColor=inherit;top=0;left=0;right=0;bottom=0;" parent="rekhB66va6viN4RXd3Ok-204" vertex="1">
                    <mxGeometry y="60" width="440" height="30" as="geometry"/>
                </mxCell>
                <mxCell id="rekhB66va6viN4RXd3Ok-209" value="" style="shape=partialRectangle;overflow=hidden;connectable=0;fillColor=none;strokeColor=inherit;top=0;left=0;bottom=0;right=0;" parent="rekhB66va6viN4RXd3Ok-208" vertex="1">
                    <mxGeometry width="30" height="30" as="geometry">
                        <mxRectangle width="30" height="30" as="alternateBounds"/>
                    </mxGeometry>
                </mxCell>
                <mxCell id="rekhB66va6viN4RXd3Ok-210" value="&quot;fameusers_id&quot; bigint NOT NULL REFERENCES &quot;fame_users&quot; (&quot;id&quot;) DEFERRABLE INITIALLY DEFERRED" style="shape=partialRectangle;overflow=hidden;connectable=0;fillColor=none;align=left;strokeColor=inherit;top=0;left=0;bottom=0;right=0;spacingLeft=6;" parent="rekhB66va6viN4RXd3Ok-208" vertex="1">
                    <mxGeometry x="30" width="410" height="30" as="geometry">
                        <mxRectangle width="410" height="30" as="alternateBounds"/>
                    </mxGeometry>
                </mxCell>
                <mxCell id="rekhB66va6viN4RXd3Ok-211" value="" style="shape=tableRow;horizontal=0;startSize=0;swimlaneHead=0;swimlaneBody=0;fillColor=none;collapsible=0;dropTarget=0;points=[[0,0.5],[1,0.5]];portConstraint=eastwest;strokeColor=inherit;top=0;left=0;right=0;bottom=0;" parent="rekhB66va6viN4RXd3Ok-204" vertex="1">
                    <mxGeometry y="90" width="440" height="30" as="geometry"/>
                </mxCell>
                <mxCell id="rekhB66va6viN4RXd3Ok-212" value="" style="shape=partialRectangle;overflow=hidden;connectable=0;fillColor=none;strokeColor=inherit;top=0;left=0;bottom=0;right=0;" parent="rekhB66va6viN4RXd3Ok-211" vertex="1">
                    <mxGeometry width="30" height="30" as="geometry">
                        <mxRectangle width="30" height="30" as="alternateBounds"/>
                    </mxGeometry>
                </mxCell>
                <mxCell id="rekhB66va6viN4RXd3Ok-213" value="&quot;permission_id&quot; integer NOT NULL REFERENCES &quot;auth_permission&quot; (&quot;id&quot;) DEFERRABLE INITIALLY DEFERRED" style="shape=partialRectangle;overflow=hidden;connectable=0;fillColor=none;align=left;strokeColor=inherit;top=0;left=0;bottom=0;right=0;spacingLeft=6;" parent="rekhB66va6viN4RXd3Ok-211" vertex="1">
                    <mxGeometry x="30" width="410" height="30" as="geometry">
                        <mxRectangle width="410" height="30" as="alternateBounds"/>
                    </mxGeometry>
                </mxCell>
                <mxCell id="rekhB66va6viN4RXd3Ok-214" value="&quot;expertise_areas&quot;" style="shape=table;startSize=30;container=1;collapsible=1;childLayout=tableLayout;fixedRows=1;rowLines=0;fontStyle=1;align=center;resizeLast=1;fillColor=#4CFF70;" parent="1" vertex="1">
                    <mxGeometry x="80" y="550" width="469" height="120" as="geometry">
                        <mxRectangle x="910" y="1000" width="130" height="30" as="alternateBounds"/>
                    </mxGeometry>
                </mxCell>
                <mxCell id="rekhB66va6viN4RXd3Ok-215" value="" style="shape=tableRow;horizontal=0;startSize=0;swimlaneHead=0;swimlaneBody=0;fillColor=none;collapsible=0;dropTarget=0;points=[[0,0.5],[1,0.5]];portConstraint=eastwest;strokeColor=inherit;top=0;left=0;right=0;bottom=1;" parent="rekhB66va6viN4RXd3Ok-214" vertex="1">
                    <mxGeometry y="30" width="469" height="30" as="geometry"/>
                </mxCell>
                <mxCell id="rekhB66va6viN4RXd3Ok-216" value="PK" style="shape=partialRectangle;overflow=hidden;connectable=0;fillColor=none;strokeColor=inherit;top=0;left=0;bottom=0;right=0;fontStyle=1;" parent="rekhB66va6viN4RXd3Ok-215" vertex="1">
                    <mxGeometry width="30" height="30" as="geometry">
                        <mxRectangle width="30" height="30" as="alternateBounds"/>
                    </mxGeometry>
                </mxCell>
                <mxCell id="rekhB66va6viN4RXd3Ok-217" value="&quot;id&quot; integer NOT NULL  AUTOINCREMENT" style="shape=partialRectangle;overflow=hidden;connectable=0;fillColor=none;align=left;strokeColor=inherit;top=0;left=0;bottom=0;right=0;spacingLeft=6;fontStyle=5;" parent="rekhB66va6viN4RXd3Ok-215" vertex="1">
                    <mxGeometry x="30" width="439" height="30" as="geometry">
                        <mxRectangle width="439" height="30" as="alternateBounds"/>
                    </mxGeometry>
                </mxCell>
                <mxCell id="rekhB66va6viN4RXd3Ok-218" value="" style="shape=tableRow;horizontal=0;startSize=0;swimlaneHead=0;swimlaneBody=0;fillColor=none;collapsible=0;dropTarget=0;points=[[0,0.5],[1,0.5]];portConstraint=eastwest;strokeColor=inherit;top=0;left=0;right=0;bottom=0;" parent="rekhB66va6viN4RXd3Ok-214" vertex="1">
                    <mxGeometry y="60" width="469" height="30" as="geometry"/>
                </mxCell>
                <mxCell id="rekhB66va6viN4RXd3Ok-219" value="" style="shape=partialRectangle;overflow=hidden;connectable=0;fillColor=none;strokeColor=inherit;top=0;left=0;bottom=0;right=0;" parent="rekhB66va6viN4RXd3Ok-218" vertex="1">
                    <mxGeometry width="30" height="30" as="geometry">
                        <mxRectangle width="30" height="30" as="alternateBounds"/>
                    </mxGeometry>
                </mxCell>
                <mxCell id="rekhB66va6viN4RXd3Ok-220" value="&quot;label&quot; varchar(255) NOT NULL" style="shape=partialRectangle;overflow=hidden;connectable=0;fillColor=none;align=left;strokeColor=inherit;top=0;left=0;bottom=0;right=0;spacingLeft=6;" parent="rekhB66va6viN4RXd3Ok-218" vertex="1">
                    <mxGeometry x="30" width="439" height="30" as="geometry">
                        <mxRectangle width="439" height="30" as="alternateBounds"/>
                    </mxGeometry>
                </mxCell>
                <mxCell id="rekhB66va6viN4RXd3Ok-221" value="" style="shape=tableRow;horizontal=0;startSize=0;swimlaneHead=0;swimlaneBody=0;fillColor=none;collapsible=0;dropTarget=0;points=[[0,0.5],[1,0.5]];portConstraint=eastwest;strokeColor=inherit;top=0;left=0;right=0;bottom=0;" parent="rekhB66va6viN4RXd3Ok-214" vertex="1">
                    <mxGeometry y="90" width="469" height="30" as="geometry"/>
                </mxCell>
                <mxCell id="rekhB66va6viN4RXd3Ok-222" value="" style="shape=partialRectangle;overflow=hidden;connectable=0;fillColor=none;strokeColor=inherit;top=0;left=0;bottom=0;right=0;" parent="rekhB66va6viN4RXd3Ok-221" vertex="1">
                    <mxGeometry width="30" height="30" as="geometry">
                        <mxRectangle width="30" height="30" as="alternateBounds"/>
                    </mxGeometry>
                </mxCell>
                <mxCell id="rekhB66va6viN4RXd3Ok-223" value="&quot;parent_expertise_area_id&quot; bigint NULL REFERENCES &quot;expertise_areas&quot; (&quot;id&quot;) DEFERRABLE INITIALLY DEFERRED" style="shape=partialRectangle;overflow=hidden;connectable=0;fillColor=none;align=left;strokeColor=inherit;top=0;left=0;bottom=0;right=0;spacingLeft=6;" parent="rekhB66va6viN4RXd3Ok-221" vertex="1">
                    <mxGeometry x="30" width="439" height="30" as="geometry">
                        <mxRectangle width="439" height="30" as="alternateBounds"/>
                    </mxGeometry>
                </mxCell>
                <mxCell id="rekhB66va6viN4RXd3Ok-224" value="&quot;fame&quot;" style="shape=table;startSize=30;container=1;collapsible=1;childLayout=tableLayout;fixedRows=1;rowLines=0;fontStyle=1;align=center;resizeLast=1;" parent="1" vertex="1">
                    <mxGeometry y="750" width="560" height="150" as="geometry"/>
                </mxCell>
                <mxCell id="rekhB66va6viN4RXd3Ok-225" value="" style="shape=tableRow;horizontal=0;startSize=0;swimlaneHead=0;swimlaneBody=0;fillColor=none;collapsible=0;dropTarget=0;points=[[0,0.5],[1,0.5]];portConstraint=eastwest;strokeColor=inherit;top=0;left=0;right=0;bottom=1;" parent="rekhB66va6viN4RXd3Ok-224" vertex="1">
                    <mxGeometry y="30" width="560" height="30" as="geometry"/>
                </mxCell>
                <mxCell id="rekhB66va6viN4RXd3Ok-226" value="PK" style="shape=partialRectangle;overflow=hidden;connectable=0;fillColor=none;strokeColor=inherit;top=0;left=0;bottom=0;right=0;fontStyle=1;" parent="rekhB66va6viN4RXd3Ok-225" vertex="1">
                    <mxGeometry width="30" height="30" as="geometry">
                        <mxRectangle width="30" height="30" as="alternateBounds"/>
                    </mxGeometry>
                </mxCell>
                <mxCell id="rekhB66va6viN4RXd3Ok-227" value="&quot;id&quot; integer NOT NULL  AUTOINCREMENT" style="shape=partialRectangle;overflow=hidden;connectable=0;fillColor=none;align=left;strokeColor=inherit;top=0;left=0;bottom=0;right=0;spacingLeft=6;fontStyle=5;" parent="rekhB66va6viN4RXd3Ok-225" vertex="1">
                    <mxGeometry x="30" width="530" height="30" as="geometry">
                        <mxRectangle width="530" height="30" as="alternateBounds"/>
                    </mxGeometry>
                </mxCell>
                <mxCell id="rekhB66va6viN4RXd3Ok-228" value="" style="shape=tableRow;horizontal=0;startSize=0;swimlaneHead=0;swimlaneBody=0;fillColor=none;collapsible=0;dropTarget=0;points=[[0,0.5],[1,0.5]];portConstraint=eastwest;strokeColor=inherit;top=0;left=0;right=0;bottom=0;" parent="rekhB66va6viN4RXd3Ok-224" vertex="1">
                    <mxGeometry y="60" width="560" height="30" as="geometry"/>
                </mxCell>
                <mxCell id="rekhB66va6viN4RXd3Ok-229" value="" style="shape=partialRectangle;overflow=hidden;connectable=0;fillColor=none;strokeColor=inherit;top=0;left=0;bottom=0;right=0;" parent="rekhB66va6viN4RXd3Ok-228" vertex="1">
                    <mxGeometry width="30" height="30" as="geometry">
                        <mxRectangle width="30" height="30" as="alternateBounds"/>
                    </mxGeometry>
                </mxCell>
                <mxCell id="rekhB66va6viN4RXd3Ok-230" value="&quot;expertise_area_id&quot; bigint NOT NULL REFERENCES &quot;expertise_areas&quot; (&quot;id&quot;) DEFERRABLE INITIALLY DEFERRED" style="shape=partialRectangle;overflow=hidden;connectable=0;fillColor=none;align=left;strokeColor=inherit;top=0;left=0;bottom=0;right=0;spacingLeft=6;" parent="rekhB66va6viN4RXd3Ok-228" vertex="1">
                    <mxGeometry x="30" width="530" height="30" as="geometry">
                        <mxRectangle width="530" height="30" as="alternateBounds"/>
                    </mxGeometry>
                </mxCell>
                <mxCell id="rekhB66va6viN4RXd3Ok-231" value="" style="shape=tableRow;horizontal=0;startSize=0;swimlaneHead=0;swimlaneBody=0;fillColor=none;collapsible=0;dropTarget=0;points=[[0,0.5],[1,0.5]];portConstraint=eastwest;strokeColor=inherit;top=0;left=0;right=0;bottom=0;" parent="rekhB66va6viN4RXd3Ok-224" vertex="1">
                    <mxGeometry y="90" width="560" height="30" as="geometry"/>
                </mxCell>
                <mxCell id="rekhB66va6viN4RXd3Ok-232" value="" style="shape=partialRectangle;overflow=hidden;connectable=0;fillColor=none;strokeColor=inherit;top=0;left=0;bottom=0;right=0;" parent="rekhB66va6viN4RXd3Ok-231" vertex="1">
                    <mxGeometry width="30" height="30" as="geometry">
                        <mxRectangle width="30" height="30" as="alternateBounds"/>
                    </mxGeometry>
                </mxCell>
                <mxCell id="rekhB66va6viN4RXd3Ok-233" value="&quot;user_id&quot; bigint NOT NULL REFERENCES &quot;fame_users&quot; (&quot;id&quot;) DEFERRABLE INITIALLY DEFERRED" style="shape=partialRectangle;overflow=hidden;connectable=0;fillColor=none;align=left;strokeColor=inherit;top=0;left=0;bottom=0;right=0;spacingLeft=6;" parent="rekhB66va6viN4RXd3Ok-231" vertex="1">
                    <mxGeometry x="30" width="530" height="30" as="geometry">
                        <mxRectangle width="530" height="30" as="alternateBounds"/>
                    </mxGeometry>
                </mxCell>
                <mxCell id="rekhB66va6viN4RXd3Ok-234" value="" style="shape=tableRow;horizontal=0;startSize=0;swimlaneHead=0;swimlaneBody=0;fillColor=none;collapsible=0;dropTarget=0;points=[[0,0.5],[1,0.5]];portConstraint=eastwest;strokeColor=inherit;top=0;left=0;right=0;bottom=0;" parent="rekhB66va6viN4RXd3Ok-224" vertex="1">
                    <mxGeometry y="120" width="560" height="30" as="geometry"/>
                </mxCell>
                <mxCell id="rekhB66va6viN4RXd3Ok-235" value="" style="shape=partialRectangle;overflow=hidden;connectable=0;fillColor=none;strokeColor=inherit;top=0;left=0;bottom=0;right=0;" parent="rekhB66va6viN4RXd3Ok-234" vertex="1">
                    <mxGeometry width="30" height="30" as="geometry">
                        <mxRectangle width="30" height="30" as="alternateBounds"/>
                    </mxGeometry>
                </mxCell>
                <mxCell id="rekhB66va6viN4RXd3Ok-236" value="&quot;fame_level_id&quot; bigint NOT NULL REFERENCES &quot;fame_levels&quot; (&quot;id&quot;) DEFERRABLE INITIALLY DEFERRED" style="shape=partialRectangle;overflow=hidden;connectable=0;fillColor=none;align=left;strokeColor=inherit;top=0;left=0;bottom=0;right=0;spacingLeft=6;" parent="rekhB66va6viN4RXd3Ok-234" vertex="1">
                    <mxGeometry x="30" width="530" height="30" as="geometry">
                        <mxRectangle width="530" height="30" as="alternateBounds"/>
                    </mxGeometry>
                </mxCell>
                <mxCell id="rekhB66va6viN4RXd3Ok-237" value="&quot;fame_users&quot;" style="shape=table;startSize=30;container=1;collapsible=1;childLayout=tableLayout;fixedRows=1;rowLines=0;fontStyle=1;align=center;resizeLast=1;fillColor=#FF0A0A;" parent="1" vertex="1">
                    <mxGeometry x="780" y="570" width="280" height="330" as="geometry">
                        <mxRectangle x="950" y="530" width="110" height="30" as="alternateBounds"/>
                    </mxGeometry>
                </mxCell>
                <mxCell id="rekhB66va6viN4RXd3Ok-238" value="" style="shape=tableRow;horizontal=0;startSize=0;swimlaneHead=0;swimlaneBody=0;fillColor=none;collapsible=0;dropTarget=0;points=[[0,0.5],[1,0.5]];portConstraint=eastwest;strokeColor=inherit;top=0;left=0;right=0;bottom=1;" parent="rekhB66va6viN4RXd3Ok-237" vertex="1">
                    <mxGeometry y="30" width="280" height="30" as="geometry"/>
                </mxCell>
                <mxCell id="rekhB66va6viN4RXd3Ok-239" value="PK" style="shape=partialRectangle;overflow=hidden;connectable=0;fillColor=none;strokeColor=inherit;top=0;left=0;bottom=0;right=0;fontStyle=1;" parent="rekhB66va6viN4RXd3Ok-238" vertex="1">
                    <mxGeometry width="30" height="30" as="geometry">
                        <mxRectangle width="30" height="30" as="alternateBounds"/>
                    </mxGeometry>
                </mxCell>
                <mxCell id="rekhB66va6viN4RXd3Ok-240" value="&quot;id&quot; integer NOT NULL  AUTOINCREMENT" style="shape=partialRectangle;overflow=hidden;connectable=0;fillColor=none;align=left;strokeColor=inherit;top=0;left=0;bottom=0;right=0;spacingLeft=6;fontStyle=5;" parent="rekhB66va6viN4RXd3Ok-238" vertex="1">
                    <mxGeometry x="30" width="250" height="30" as="geometry">
                        <mxRectangle width="250" height="30" as="alternateBounds"/>
                    </mxGeometry>
                </mxCell>
                <mxCell id="rekhB66va6viN4RXd3Ok-241" value="" style="shape=tableRow;horizontal=0;startSize=0;swimlaneHead=0;swimlaneBody=0;fillColor=none;collapsible=0;dropTarget=0;points=[[0,0.5],[1,0.5]];portConstraint=eastwest;strokeColor=inherit;top=0;left=0;right=0;bottom=0;" parent="rekhB66va6viN4RXd3Ok-237" vertex="1">
                    <mxGeometry y="60" width="280" height="30" as="geometry"/>
                </mxCell>
                <mxCell id="rekhB66va6viN4RXd3Ok-242" value="" style="shape=partialRectangle;overflow=hidden;connectable=0;fillColor=none;strokeColor=inherit;top=0;left=0;bottom=0;right=0;" parent="rekhB66va6viN4RXd3Ok-241" vertex="1">
                    <mxGeometry width="30" height="30" as="geometry">
                        <mxRectangle width="30" height="30" as="alternateBounds"/>
                    </mxGeometry>
                </mxCell>
                <mxCell id="rekhB66va6viN4RXd3Ok-243" value="&quot;password&quot; varchar(128) NOT NULL" style="shape=partialRectangle;overflow=hidden;connectable=0;fillColor=none;align=left;strokeColor=inherit;top=0;left=0;bottom=0;right=0;spacingLeft=6;" parent="rekhB66va6viN4RXd3Ok-241" vertex="1">
                    <mxGeometry x="30" width="250" height="30" as="geometry">
                        <mxRectangle width="250" height="30" as="alternateBounds"/>
                    </mxGeometry>
                </mxCell>
                <mxCell id="rekhB66va6viN4RXd3Ok-244" value="" style="shape=tableRow;horizontal=0;startSize=0;swimlaneHead=0;swimlaneBody=0;fillColor=none;collapsible=0;dropTarget=0;points=[[0,0.5],[1,0.5]];portConstraint=eastwest;strokeColor=inherit;top=0;left=0;right=0;bottom=0;" parent="rekhB66va6viN4RXd3Ok-237" vertex="1">
                    <mxGeometry y="90" width="280" height="30" as="geometry"/>
                </mxCell>
                <mxCell id="rekhB66va6viN4RXd3Ok-245" value="" style="shape=partialRectangle;overflow=hidden;connectable=0;fillColor=none;strokeColor=inherit;top=0;left=0;bottom=0;right=0;" parent="rekhB66va6viN4RXd3Ok-244" vertex="1">
                    <mxGeometry width="30" height="30" as="geometry">
                        <mxRectangle width="30" height="30" as="alternateBounds"/>
                    </mxGeometry>
                </mxCell>
                <mxCell id="rekhB66va6viN4RXd3Ok-246" value="&quot;last_login&quot; datetime NULL" style="shape=partialRectangle;overflow=hidden;connectable=0;fillColor=none;align=left;strokeColor=inherit;top=0;left=0;bottom=0;right=0;spacingLeft=6;" parent="rekhB66va6viN4RXd3Ok-244" vertex="1">
                    <mxGeometry x="30" width="250" height="30" as="geometry">
                        <mxRectangle width="250" height="30" as="alternateBounds"/>
                    </mxGeometry>
                </mxCell>
                <mxCell id="rekhB66va6viN4RXd3Ok-247" value="" style="shape=tableRow;horizontal=0;startSize=0;swimlaneHead=0;swimlaneBody=0;fillColor=none;collapsible=0;dropTarget=0;points=[[0,0.5],[1,0.5]];portConstraint=eastwest;strokeColor=inherit;top=0;left=0;right=0;bottom=0;" parent="rekhB66va6viN4RXd3Ok-237" vertex="1">
                    <mxGeometry y="120" width="280" height="30" as="geometry"/>
                </mxCell>
                <mxCell id="rekhB66va6viN4RXd3Ok-248" value="" style="shape=partialRectangle;overflow=hidden;connectable=0;fillColor=none;strokeColor=inherit;top=0;left=0;bottom=0;right=0;" parent="rekhB66va6viN4RXd3Ok-247" vertex="1">
                    <mxGeometry width="30" height="30" as="geometry">
                        <mxRectangle width="30" height="30" as="alternateBounds"/>
                    </mxGeometry>
                </mxCell>
                <mxCell id="rekhB66va6viN4RXd3Ok-249" value="&quot;is_superuser&quot; bool NOT NULL" style="shape=partialRectangle;overflow=hidden;connectable=0;fillColor=none;align=left;strokeColor=inherit;top=0;left=0;bottom=0;right=0;spacingLeft=6;" parent="rekhB66va6viN4RXd3Ok-247" vertex="1">
                    <mxGeometry x="30" width="250" height="30" as="geometry">
                        <mxRectangle width="250" height="30" as="alternateBounds"/>
                    </mxGeometry>
                </mxCell>
                <mxCell id="rekhB66va6viN4RXd3Ok-250" value="" style="shape=tableRow;horizontal=0;startSize=0;swimlaneHead=0;swimlaneBody=0;fillColor=none;collapsible=0;dropTarget=0;points=[[0,0.5],[1,0.5]];portConstraint=eastwest;strokeColor=inherit;top=0;left=0;right=0;bottom=0;" parent="rekhB66va6viN4RXd3Ok-237" vertex="1">
                    <mxGeometry y="150" width="280" height="30" as="geometry"/>
                </mxCell>
                <mxCell id="rekhB66va6viN4RXd3Ok-251" value="" style="shape=partialRectangle;overflow=hidden;connectable=0;fillColor=none;strokeColor=inherit;top=0;left=0;bottom=0;right=0;" parent="rekhB66va6viN4RXd3Ok-250" vertex="1">
                    <mxGeometry width="30" height="30" as="geometry">
                        <mxRectangle width="30" height="30" as="alternateBounds"/>
                    </mxGeometry>
                </mxCell>
                <mxCell id="rekhB66va6viN4RXd3Ok-252" value="&quot;first_name&quot; varchar(150) NOT NULL" style="shape=partialRectangle;overflow=hidden;connectable=0;fillColor=none;align=left;strokeColor=inherit;top=0;left=0;bottom=0;right=0;spacingLeft=6;" parent="rekhB66va6viN4RXd3Ok-250" vertex="1">
                    <mxGeometry x="30" width="250" height="30" as="geometry">
                        <mxRectangle width="250" height="30" as="alternateBounds"/>
                    </mxGeometry>
                </mxCell>
                <mxCell id="rekhB66va6viN4RXd3Ok-253" value="" style="shape=tableRow;horizontal=0;startSize=0;swimlaneHead=0;swimlaneBody=0;fillColor=none;collapsible=0;dropTarget=0;points=[[0,0.5],[1,0.5]];portConstraint=eastwest;strokeColor=inherit;top=0;left=0;right=0;bottom=0;" parent="rekhB66va6viN4RXd3Ok-237" vertex="1">
                    <mxGeometry y="180" width="280" height="30" as="geometry"/>
                </mxCell>
                <mxCell id="rekhB66va6viN4RXd3Ok-254" value="" style="shape=partialRectangle;overflow=hidden;connectable=0;fillColor=none;strokeColor=inherit;top=0;left=0;bottom=0;right=0;" parent="rekhB66va6viN4RXd3Ok-253" vertex="1">
                    <mxGeometry width="30" height="30" as="geometry">
                        <mxRectangle width="30" height="30" as="alternateBounds"/>
                    </mxGeometry>
                </mxCell>
                <mxCell id="rekhB66va6viN4RXd3Ok-255" value="&quot;last_name&quot; varchar(150) NOT NULL" style="shape=partialRectangle;overflow=hidden;connectable=0;fillColor=none;align=left;strokeColor=inherit;top=0;left=0;bottom=0;right=0;spacingLeft=6;" parent="rekhB66va6viN4RXd3Ok-253" vertex="1">
                    <mxGeometry x="30" width="250" height="30" as="geometry">
                        <mxRectangle width="250" height="30" as="alternateBounds"/>
                    </mxGeometry>
                </mxCell>
                <mxCell id="rekhB66va6viN4RXd3Ok-256" value="" style="shape=tableRow;horizontal=0;startSize=0;swimlaneHead=0;swimlaneBody=0;fillColor=none;collapsible=0;dropTarget=0;points=[[0,0.5],[1,0.5]];portConstraint=eastwest;strokeColor=inherit;top=0;left=0;right=0;bottom=0;" parent="rekhB66va6viN4RXd3Ok-237" vertex="1">
                    <mxGeometry y="210" width="280" height="30" as="geometry"/>
                </mxCell>
                <mxCell id="rekhB66va6viN4RXd3Ok-257" value="" style="shape=partialRectangle;overflow=hidden;connectable=0;fillColor=none;strokeColor=inherit;top=0;left=0;bottom=0;right=0;" parent="rekhB66va6viN4RXd3Ok-256" vertex="1">
                    <mxGeometry width="30" height="30" as="geometry">
                        <mxRectangle width="30" height="30" as="alternateBounds"/>
                    </mxGeometry>
                </mxCell>
                <mxCell id="rekhB66va6viN4RXd3Ok-258" value="&quot;is_staff&quot; bool NOT NULL" style="shape=partialRectangle;overflow=hidden;connectable=0;fillColor=none;align=left;strokeColor=inherit;top=0;left=0;bottom=0;right=0;spacingLeft=6;" parent="rekhB66va6viN4RXd3Ok-256" vertex="1">
                    <mxGeometry x="30" width="250" height="30" as="geometry">
                        <mxRectangle width="250" height="30" as="alternateBounds"/>
                    </mxGeometry>
                </mxCell>
                <mxCell id="rekhB66va6viN4RXd3Ok-259" value="" style="shape=tableRow;horizontal=0;startSize=0;swimlaneHead=0;swimlaneBody=0;fillColor=none;collapsible=0;dropTarget=0;points=[[0,0.5],[1,0.5]];portConstraint=eastwest;strokeColor=inherit;top=0;left=0;right=0;bottom=0;" parent="rekhB66va6viN4RXd3Ok-237" vertex="1">
                    <mxGeometry y="240" width="280" height="30" as="geometry"/>
                </mxCell>
                <mxCell id="rekhB66va6viN4RXd3Ok-260" value="" style="shape=partialRectangle;overflow=hidden;connectable=0;fillColor=none;strokeColor=inherit;top=0;left=0;bottom=0;right=0;" parent="rekhB66va6viN4RXd3Ok-259" vertex="1">
                    <mxGeometry width="30" height="30" as="geometry">
                        <mxRectangle width="30" height="30" as="alternateBounds"/>
                    </mxGeometry>
                </mxCell>
                <mxCell id="rekhB66va6viN4RXd3Ok-261" value="&quot;is_active&quot; bool NOT NULL" style="shape=partialRectangle;overflow=hidden;connectable=0;fillColor=none;align=left;strokeColor=inherit;top=0;left=0;bottom=0;right=0;spacingLeft=6;" parent="rekhB66va6viN4RXd3Ok-259" vertex="1">
                    <mxGeometry x="30" width="250" height="30" as="geometry">
                        <mxRectangle width="250" height="30" as="alternateBounds"/>
                    </mxGeometry>
                </mxCell>
                <mxCell id="rekhB66va6viN4RXd3Ok-262" value="" style="shape=tableRow;horizontal=0;startSize=0;swimlaneHead=0;swimlaneBody=0;fillColor=none;collapsible=0;dropTarget=0;points=[[0,0.5],[1,0.5]];portConstraint=eastwest;strokeColor=inherit;top=0;left=0;right=0;bottom=0;" parent="rekhB66va6viN4RXd3Ok-237" vertex="1">
                    <mxGeometry y="270" width="280" height="30" as="geometry"/>
                </mxCell>
                <mxCell id="rekhB66va6viN4RXd3Ok-263" value="" style="shape=partialRectangle;overflow=hidden;connectable=0;fillColor=none;strokeColor=inherit;top=0;left=0;bottom=0;right=0;" parent="rekhB66va6viN4RXd3Ok-262" vertex="1">
                    <mxGeometry width="30" height="30" as="geometry">
                        <mxRectangle width="30" height="30" as="alternateBounds"/>
                    </mxGeometry>
                </mxCell>
                <mxCell id="rekhB66va6viN4RXd3Ok-264" value="&quot;date_joined&quot; datetime NOT NULL" style="shape=partialRectangle;overflow=hidden;connectable=0;fillColor=none;align=left;strokeColor=inherit;top=0;left=0;bottom=0;right=0;spacingLeft=6;" parent="rekhB66va6viN4RXd3Ok-262" vertex="1">
                    <mxGeometry x="30" width="250" height="30" as="geometry">
                        <mxRectangle width="250" height="30" as="alternateBounds"/>
                    </mxGeometry>
                </mxCell>
                <mxCell id="rekhB66va6viN4RXd3Ok-265" value="" style="shape=tableRow;horizontal=0;startSize=0;swimlaneHead=0;swimlaneBody=0;fillColor=none;collapsible=0;dropTarget=0;points=[[0,0.5],[1,0.5]];portConstraint=eastwest;strokeColor=inherit;top=0;left=0;right=0;bottom=0;" parent="rekhB66va6viN4RXd3Ok-237" vertex="1">
                    <mxGeometry y="300" width="280" height="30" as="geometry"/>
                </mxCell>
                <mxCell id="rekhB66va6viN4RXd3Ok-266" value="" style="shape=partialRectangle;overflow=hidden;connectable=0;fillColor=none;strokeColor=inherit;top=0;left=0;bottom=0;right=0;" parent="rekhB66va6viN4RXd3Ok-265" vertex="1">
                    <mxGeometry width="30" height="30" as="geometry">
                        <mxRectangle width="30" height="30" as="alternateBounds"/>
                    </mxGeometry>
                </mxCell>
                <mxCell id="rekhB66va6viN4RXd3Ok-267" value="&quot;email&quot; varchar(254) NOT NULL UNIQUE" style="shape=partialRectangle;overflow=hidden;connectable=0;fillColor=none;align=left;strokeColor=inherit;top=0;left=0;bottom=0;right=0;spacingLeft=6;" parent="rekhB66va6viN4RXd3Ok-265" vertex="1">
                    <mxGeometry x="30" width="250" height="30" as="geometry">
                        <mxRectangle width="250" height="30" as="alternateBounds"/>
                    </mxGeometry>
                </mxCell>
                <mxCell id="rekhB66va6viN4RXd3Ok-303" value="&quot;truth_ratings&quot;" style="shape=table;startSize=30;container=1;collapsible=1;childLayout=tableLayout;fixedRows=1;rowLines=0;fontStyle=1;align=center;resizeLast=1;" parent="1" vertex="1">
                    <mxGeometry x="230" y="340" width="280" height="120" as="geometry"/>
                </mxCell>
                <mxCell id="rekhB66va6viN4RXd3Ok-304" value="" style="shape=tableRow;horizontal=0;startSize=0;swimlaneHead=0;swimlaneBody=0;fillColor=none;collapsible=0;dropTarget=0;points=[[0,0.5],[1,0.5]];portConstraint=eastwest;strokeColor=inherit;top=0;left=0;right=0;bottom=1;" parent="rekhB66va6viN4RXd3Ok-303" vertex="1">
                    <mxGeometry y="30" width="280" height="30" as="geometry"/>
                </mxCell>
                <mxCell id="rekhB66va6viN4RXd3Ok-305" value="PK" style="shape=partialRectangle;overflow=hidden;connectable=0;fillColor=none;strokeColor=inherit;top=0;left=0;bottom=0;right=0;fontStyle=1;" parent="rekhB66va6viN4RXd3Ok-304" vertex="1">
                    <mxGeometry width="30" height="30" as="geometry">
                        <mxRectangle width="30" height="30" as="alternateBounds"/>
                    </mxGeometry>
                </mxCell>
                <mxCell id="rekhB66va6viN4RXd3Ok-306" value="&quot;id&quot; integer NOT NULL  AUTOINCREMENT" style="shape=partialRectangle;overflow=hidden;connectable=0;fillColor=none;align=left;strokeColor=inherit;top=0;left=0;bottom=0;right=0;spacingLeft=6;fontStyle=5;" parent="rekhB66va6viN4RXd3Ok-304" vertex="1">
                    <mxGeometry x="30" width="250" height="30" as="geometry">
                        <mxRectangle width="250" height="30" as="alternateBounds"/>
                    </mxGeometry>
                </mxCell>
                <mxCell id="rekhB66va6viN4RXd3Ok-307" value="" style="shape=tableRow;horizontal=0;startSize=0;swimlaneHead=0;swimlaneBody=0;fillColor=none;collapsible=0;dropTarget=0;points=[[0,0.5],[1,0.5]];portConstraint=eastwest;strokeColor=inherit;top=0;left=0;right=0;bottom=0;" parent="rekhB66va6viN4RXd3Ok-303" vertex="1">
                    <mxGeometry y="60" width="280" height="30" as="geometry"/>
                </mxCell>
                <mxCell id="rekhB66va6viN4RXd3Ok-308" value="" style="shape=partialRectangle;overflow=hidden;connectable=0;fillColor=none;strokeColor=inherit;top=0;left=0;bottom=0;right=0;" parent="rekhB66va6viN4RXd3Ok-307" vertex="1">
                    <mxGeometry width="30" height="30" as="geometry">
                        <mxRectangle width="30" height="30" as="alternateBounds"/>
                    </mxGeometry>
                </mxCell>
                <mxCell id="rekhB66va6viN4RXd3Ok-309" value="&quot;name&quot; varchar(42) NOT NULL" style="shape=partialRectangle;overflow=hidden;connectable=0;fillColor=none;align=left;strokeColor=inherit;top=0;left=0;bottom=0;right=0;spacingLeft=6;" parent="rekhB66va6viN4RXd3Ok-307" vertex="1">
                    <mxGeometry x="30" width="250" height="30" as="geometry">
                        <mxRectangle width="250" height="30" as="alternateBounds"/>
                    </mxGeometry>
                </mxCell>
                <mxCell id="rekhB66va6viN4RXd3Ok-310" value="" style="shape=tableRow;horizontal=0;startSize=0;swimlaneHead=0;swimlaneBody=0;fillColor=none;collapsible=0;dropTarget=0;points=[[0,0.5],[1,0.5]];portConstraint=eastwest;strokeColor=inherit;top=0;left=0;right=0;bottom=0;" parent="rekhB66va6viN4RXd3Ok-303" vertex="1">
                    <mxGeometry y="90" width="280" height="30" as="geometry"/>
                </mxCell>
                <mxCell id="rekhB66va6viN4RXd3Ok-311" value="" style="shape=partialRectangle;overflow=hidden;connectable=0;fillColor=none;strokeColor=inherit;top=0;left=0;bottom=0;right=0;" parent="rekhB66va6viN4RXd3Ok-310" vertex="1">
                    <mxGeometry width="30" height="30" as="geometry">
                        <mxRectangle width="30" height="30" as="alternateBounds"/>
                    </mxGeometry>
                </mxCell>
                <mxCell id="rekhB66va6viN4RXd3Ok-312" value="&quot;numeric_value&quot; integer NOT NULL" style="shape=partialRectangle;overflow=hidden;connectable=0;fillColor=none;align=left;strokeColor=inherit;top=0;left=0;bottom=0;right=0;spacingLeft=6;" parent="rekhB66va6viN4RXd3Ok-310" vertex="1">
                    <mxGeometry x="30" width="250" height="30" as="geometry">
                        <mxRectangle width="250" height="30" as="alternateBounds"/>
                    </mxGeometry>
                </mxCell>
                <mxCell id="rekhB66va6viN4RXd3Ok-313" value="&quot;post_expertise_areas_and_ratings&quot;" style="shape=table;startSize=30;container=1;collapsible=1;childLayout=tableLayout;fixedRows=1;rowLines=0;fontStyle=1;align=center;resizeLast=1;" parent="1" vertex="1">
                    <mxGeometry x="610" y="310" width="550" height="150" as="geometry">
                        <mxRectangle x="260" y="840" width="230" height="30" as="alternateBounds"/>
                    </mxGeometry>
                </mxCell>
                <mxCell id="rekhB66va6viN4RXd3Ok-314" value="" style="shape=tableRow;horizontal=0;startSize=0;swimlaneHead=0;swimlaneBody=0;fillColor=none;collapsible=0;dropTarget=0;points=[[0,0.5],[1,0.5]];portConstraint=eastwest;strokeColor=inherit;top=0;left=0;right=0;bottom=1;" parent="rekhB66va6viN4RXd3Ok-313" vertex="1">
                    <mxGeometry y="30" width="550" height="30" as="geometry"/>
                </mxCell>
                <mxCell id="rekhB66va6viN4RXd3Ok-315" value="PK" style="shape=partialRectangle;overflow=hidden;connectable=0;fillColor=none;strokeColor=inherit;top=0;left=0;bottom=0;right=0;fontStyle=1;" parent="rekhB66va6viN4RXd3Ok-314" vertex="1">
                    <mxGeometry width="30" height="30" as="geometry">
                        <mxRectangle width="30" height="30" as="alternateBounds"/>
                    </mxGeometry>
                </mxCell>
                <mxCell id="rekhB66va6viN4RXd3Ok-316" value="&quot;id&quot; integer NOT NULL  AUTOINCREMENT" style="shape=partialRectangle;overflow=hidden;connectable=0;fillColor=none;align=left;strokeColor=inherit;top=0;left=0;bottom=0;right=0;spacingLeft=6;fontStyle=5;" parent="rekhB66va6viN4RXd3Ok-314" vertex="1">
                    <mxGeometry x="30" width="520" height="30" as="geometry">
                        <mxRectangle width="520" height="30" as="alternateBounds"/>
                    </mxGeometry>
                </mxCell>
                <mxCell id="rekhB66va6viN4RXd3Ok-317" value="" style="shape=tableRow;horizontal=0;startSize=0;swimlaneHead=0;swimlaneBody=0;fillColor=none;collapsible=0;dropTarget=0;points=[[0,0.5],[1,0.5]];portConstraint=eastwest;strokeColor=inherit;top=0;left=0;right=0;bottom=0;" parent="rekhB66va6viN4RXd3Ok-313" vertex="1">
                    <mxGeometry y="60" width="550" height="30" as="geometry"/>
                </mxCell>
                <mxCell id="rekhB66va6viN4RXd3Ok-318" value="" style="shape=partialRectangle;overflow=hidden;connectable=0;fillColor=none;strokeColor=inherit;top=0;left=0;bottom=0;right=0;" parent="rekhB66va6viN4RXd3Ok-317" vertex="1">
                    <mxGeometry width="30" height="30" as="geometry">
                        <mxRectangle width="30" height="30" as="alternateBounds"/>
                    </mxGeometry>
                </mxCell>
                <mxCell id="rekhB66va6viN4RXd3Ok-319" value="&quot;expertise_area_id&quot; bigint NOT NULL REFERENCES &quot;expertise_areas&quot; (&quot;id&quot;) DEFERRABLE INITIALLY DEFERRED" style="shape=partialRectangle;overflow=hidden;connectable=0;fillColor=none;align=left;strokeColor=inherit;top=0;left=0;bottom=0;right=0;spacingLeft=6;" parent="rekhB66va6viN4RXd3Ok-317" vertex="1">
                    <mxGeometry x="30" width="520" height="30" as="geometry">
                        <mxRectangle width="520" height="30" as="alternateBounds"/>
                    </mxGeometry>
                </mxCell>
                <mxCell id="rekhB66va6viN4RXd3Ok-320" value="" style="shape=tableRow;horizontal=0;startSize=0;swimlaneHead=0;swimlaneBody=0;fillColor=none;collapsible=0;dropTarget=0;points=[[0,0.5],[1,0.5]];portConstraint=eastwest;strokeColor=inherit;top=0;left=0;right=0;bottom=0;" parent="rekhB66va6viN4RXd3Ok-313" vertex="1">
                    <mxGeometry y="90" width="550" height="30" as="geometry"/>
                </mxCell>
                <mxCell id="rekhB66va6viN4RXd3Ok-321" value="" style="shape=partialRectangle;overflow=hidden;connectable=0;fillColor=none;strokeColor=inherit;top=0;left=0;bottom=0;right=0;" parent="rekhB66va6viN4RXd3Ok-320" vertex="1">
                    <mxGeometry width="30" height="30" as="geometry">
                        <mxRectangle width="30" height="30" as="alternateBounds"/>
                    </mxGeometry>
                </mxCell>
                <mxCell id="rekhB66va6viN4RXd3Ok-322" value="&quot;post_id&quot; bigint NOT NULL REFERENCES &quot;posts&quot; (&quot;id&quot;) DEFERRABLE INITIALLY DEFERRED" style="shape=partialRectangle;overflow=hidden;connectable=0;fillColor=none;align=left;strokeColor=inherit;top=0;left=0;bottom=0;right=0;spacingLeft=6;" parent="rekhB66va6viN4RXd3Ok-320" vertex="1">
                    <mxGeometry x="30" width="520" height="30" as="geometry">
                        <mxRectangle width="520" height="30" as="alternateBounds"/>
                    </mxGeometry>
                </mxCell>
                <mxCell id="rekhB66va6viN4RXd3Ok-323" value="" style="shape=tableRow;horizontal=0;startSize=0;swimlaneHead=0;swimlaneBody=0;fillColor=none;collapsible=0;dropTarget=0;points=[[0,0.5],[1,0.5]];portConstraint=eastwest;strokeColor=inherit;top=0;left=0;right=0;bottom=0;" parent="rekhB66va6viN4RXd3Ok-313" vertex="1">
                    <mxGeometry y="120" width="550" height="30" as="geometry"/>
                </mxCell>
                <mxCell id="rekhB66va6viN4RXd3Ok-324" value="" style="shape=partialRectangle;overflow=hidden;connectable=0;fillColor=none;strokeColor=inherit;top=0;left=0;bottom=0;right=0;" parent="rekhB66va6viN4RXd3Ok-323" vertex="1">
                    <mxGeometry width="30" height="30" as="geometry">
                        <mxRectangle width="30" height="30" as="alternateBounds"/>
                    </mxGeometry>
                </mxCell>
                <mxCell id="rekhB66va6viN4RXd3Ok-325" value="&quot;truth_rating_id&quot; bigint NULL REFERENCES &quot;truth_ratings&quot; (&quot;id&quot;) DEFERRABLE INITIALLY DEFERRED" style="shape=partialRectangle;overflow=hidden;connectable=0;fillColor=none;align=left;strokeColor=inherit;top=0;left=0;bottom=0;right=0;spacingLeft=6;" parent="rekhB66va6viN4RXd3Ok-323" vertex="1">
                    <mxGeometry x="30" width="520" height="30" as="geometry">
                        <mxRectangle width="520" height="30" as="alternateBounds"/>
                    </mxGeometry>
                </mxCell>
                <mxCell id="rekhB66va6viN4RXd3Ok-326" value="&quot;social_network_users&quot;" style="shape=table;startSize=30;container=1;collapsible=1;childLayout=tableLayout;fixedRows=1;rowLines=0;fontStyle=1;align=center;resizeLast=1;fillColor=#FF621F;" parent="1" vertex="1">
                    <mxGeometry x="1670" y="450" width="609.9999999999991" height="90" as="geometry"/>
                </mxCell>
                <mxCell id="rekhB66va6viN4RXd3Ok-327" value="" style="shape=tableRow;horizontal=0;startSize=0;swimlaneHead=0;swimlaneBody=0;fillColor=none;collapsible=0;dropTarget=0;points=[[0,0.5],[1,0.5]];portConstraint=eastwest;strokeColor=inherit;top=0;left=0;right=0;bottom=1;" parent="rekhB66va6viN4RXd3Ok-326" vertex="1">
                    <mxGeometry y="30" width="609.9999999999991" height="30" as="geometry"/>
                </mxCell>
                <mxCell id="rekhB66va6viN4RXd3Ok-328" value="PK" style="shape=partialRectangle;overflow=hidden;connectable=0;fillColor=none;strokeColor=inherit;top=0;left=0;bottom=0;right=0;fontStyle=1;" parent="rekhB66va6viN4RXd3Ok-327" vertex="1">
                    <mxGeometry width="30" height="30" as="geometry">
                        <mxRectangle width="30" height="30" as="alternateBounds"/>
                    </mxGeometry>
                </mxCell>
                <mxCell id="rekhB66va6viN4RXd3Ok-329" value="&quot;fameusers_ptr_id&quot; bigint NOT NULL  REFERENCES &quot;fame_users&quot; (&quot;id&quot;) DEFERRABLE INITIALLY DEFERRED" style="shape=partialRectangle;overflow=hidden;connectable=0;fillColor=none;align=left;strokeColor=inherit;top=0;left=0;bottom=0;right=0;spacingLeft=6;fontStyle=5;" parent="rekhB66va6viN4RXd3Ok-327" vertex="1">
                    <mxGeometry x="30" width="579.9999999999991" height="30" as="geometry">
                        <mxRectangle width="579.9999999999991" height="30" as="alternateBounds"/>
                    </mxGeometry>
                </mxCell>
                <mxCell id="rekhB66va6viN4RXd3Ok-330" value="" style="shape=tableRow;horizontal=0;startSize=0;swimlaneHead=0;swimlaneBody=0;fillColor=none;collapsible=0;dropTarget=0;points=[[0,0.5],[1,0.5]];portConstraint=eastwest;strokeColor=inherit;top=0;left=0;right=0;bottom=0;" parent="rekhB66va6viN4RXd3Ok-326" vertex="1">
                    <mxGeometry y="60" width="609.9999999999991" height="30" as="geometry"/>
                </mxCell>
                <mxCell id="rekhB66va6viN4RXd3Ok-331" value="" style="shape=partialRectangle;overflow=hidden;connectable=0;fillColor=none;strokeColor=inherit;top=0;left=0;bottom=0;right=0;" parent="rekhB66va6viN4RXd3Ok-330" vertex="1">
                    <mxGeometry width="30" height="30" as="geometry">
                        <mxRectangle width="30" height="30" as="alternateBounds"/>
                    </mxGeometry>
                </mxCell>
                <mxCell id="rekhB66va6viN4RXd3Ok-332" value="&quot;is_banned&quot; bool NOT NULL" style="shape=partialRectangle;overflow=hidden;connectable=0;fillColor=none;align=left;strokeColor=inherit;top=0;left=0;bottom=0;right=0;spacingLeft=6;" parent="rekhB66va6viN4RXd3Ok-330" vertex="1">
                    <mxGeometry x="30" width="579.9999999999991" height="30" as="geometry">
                        <mxRectangle width="579.9999999999991" height="30" as="alternateBounds"/>
                    </mxGeometry>
                </mxCell>
                <mxCell id="rekhB66va6viN4RXd3Ok-333" value="&quot;social_network_users_follows&quot;" style="shape=table;startSize=30;container=1;collapsible=1;childLayout=tableLayout;fixedRows=1;rowLines=0;fontStyle=1;align=center;resizeLast=1;" parent="1" vertex="1">
                    <mxGeometry x="1720" y="570" width="620" height="120" as="geometry"/>
                </mxCell>
                <mxCell id="rekhB66va6viN4RXd3Ok-334" value="" style="shape=tableRow;horizontal=0;startSize=0;swimlaneHead=0;swimlaneBody=0;fillColor=none;collapsible=0;dropTarget=0;points=[[0,0.5],[1,0.5]];portConstraint=eastwest;strokeColor=inherit;top=0;left=0;right=0;bottom=1;" parent="rekhB66va6viN4RXd3Ok-333" vertex="1">
                    <mxGeometry y="30" width="620" height="30" as="geometry"/>
                </mxCell>
                <mxCell id="rekhB66va6viN4RXd3Ok-335" value="PK" style="shape=partialRectangle;overflow=hidden;connectable=0;fillColor=none;strokeColor=inherit;top=0;left=0;bottom=0;right=0;fontStyle=1;" parent="rekhB66va6viN4RXd3Ok-334" vertex="1">
                    <mxGeometry width="30" height="30" as="geometry">
                        <mxRectangle width="30" height="30" as="alternateBounds"/>
                    </mxGeometry>
                </mxCell>
                <mxCell id="rekhB66va6viN4RXd3Ok-336" value="&quot;id&quot; integer NOT NULL  AUTOINCREMENT" style="shape=partialRectangle;overflow=hidden;connectable=0;fillColor=none;align=left;strokeColor=inherit;top=0;left=0;bottom=0;right=0;spacingLeft=6;fontStyle=5;" parent="rekhB66va6viN4RXd3Ok-334" vertex="1">
                    <mxGeometry x="30" width="590" height="30" as="geometry">
                        <mxRectangle width="590" height="30" as="alternateBounds"/>
                    </mxGeometry>
                </mxCell>
                <mxCell id="rekhB66va6viN4RXd3Ok-337" value="" style="shape=tableRow;horizontal=0;startSize=0;swimlaneHead=0;swimlaneBody=0;fillColor=none;collapsible=0;dropTarget=0;points=[[0,0.5],[1,0.5]];portConstraint=eastwest;strokeColor=inherit;top=0;left=0;right=0;bottom=0;" parent="rekhB66va6viN4RXd3Ok-333" vertex="1">
                    <mxGeometry y="60" width="620" height="30" as="geometry"/>
                </mxCell>
                <mxCell id="rekhB66va6viN4RXd3Ok-338" value="" style="shape=partialRectangle;overflow=hidden;connectable=0;fillColor=none;strokeColor=inherit;top=0;left=0;bottom=0;right=0;" parent="rekhB66va6viN4RXd3Ok-337" vertex="1">
                    <mxGeometry width="30" height="30" as="geometry">
                        <mxRectangle width="30" height="30" as="alternateBounds"/>
                    </mxGeometry>
                </mxCell>
                <mxCell id="rekhB66va6viN4RXd3Ok-339" value="&quot;from_socialnetworkusers_id&quot; bigint NOT NULL REFERENCES &quot;social_network_users&quot; (&quot;fameusers_ptr_id&quot;) DEFERRABLE INITIALLY DEFERRED" style="shape=partialRectangle;overflow=hidden;connectable=0;fillColor=none;align=left;strokeColor=inherit;top=0;left=0;bottom=0;right=0;spacingLeft=6;" parent="rekhB66va6viN4RXd3Ok-337" vertex="1">
                    <mxGeometry x="30" width="590" height="30" as="geometry">
                        <mxRectangle width="590" height="30" as="alternateBounds"/>
                    </mxGeometry>
                </mxCell>
                <mxCell id="rekhB66va6viN4RXd3Ok-340" value="" style="shape=tableRow;horizontal=0;startSize=0;swimlaneHead=0;swimlaneBody=0;fillColor=none;collapsible=0;dropTarget=0;points=[[0,0.5],[1,0.5]];portConstraint=eastwest;strokeColor=inherit;top=0;left=0;right=0;bottom=0;" parent="rekhB66va6viN4RXd3Ok-333" vertex="1">
                    <mxGeometry y="90" width="620" height="30" as="geometry"/>
                </mxCell>
                <mxCell id="rekhB66va6viN4RXd3Ok-341" value="" style="shape=partialRectangle;overflow=hidden;connectable=0;fillColor=none;strokeColor=inherit;top=0;left=0;bottom=0;right=0;" parent="rekhB66va6viN4RXd3Ok-340" vertex="1">
                    <mxGeometry width="30" height="30" as="geometry">
                        <mxRectangle width="30" height="30" as="alternateBounds"/>
                    </mxGeometry>
                </mxCell>
                <mxCell id="rekhB66va6viN4RXd3Ok-342" value="&quot;to_socialnetworkusers_id&quot; bigint NOT NULL REFERENCES &quot;social_network_users&quot; (&quot;fameusers_ptr_id&quot;) DEFERRABLE INITIALLY DEFERRED" style="shape=partialRectangle;overflow=hidden;connectable=0;fillColor=none;align=left;strokeColor=inherit;top=0;left=0;bottom=0;right=0;spacingLeft=6;" parent="rekhB66va6viN4RXd3Ok-340" vertex="1">
                    <mxGeometry x="30" width="590" height="30" as="geometry">
                        <mxRectangle width="590" height="30" as="alternateBounds"/>
                    </mxGeometry>
                </mxCell>
                <mxCell id="rekhB66va6viN4RXd3Ok-343" value="&quot;socialnetwork_userratings&quot;" style="shape=table;startSize=30;container=1;collapsible=1;childLayout=tableLayout;fixedRows=1;rowLines=0;fontStyle=1;align=center;resizeLast=1;fillColor=#8985FF;" parent="1" vertex="1">
                    <mxGeometry x="1320" y="220" width="480" height="210" as="geometry"/>
                </mxCell>
                <mxCell id="rekhB66va6viN4RXd3Ok-344" value="" style="shape=tableRow;horizontal=0;startSize=0;swimlaneHead=0;swimlaneBody=0;fillColor=none;collapsible=0;dropTarget=0;points=[[0,0.5],[1,0.5]];portConstraint=eastwest;strokeColor=inherit;top=0;left=0;right=0;bottom=1;" parent="rekhB66va6viN4RXd3Ok-343" vertex="1">
                    <mxGeometry y="30" width="480" height="30" as="geometry"/>
                </mxCell>
                <mxCell id="rekhB66va6viN4RXd3Ok-345" value="PK" style="shape=partialRectangle;overflow=hidden;connectable=0;fillColor=none;strokeColor=inherit;top=0;left=0;bottom=0;right=0;fontStyle=1;" parent="rekhB66va6viN4RXd3Ok-344" vertex="1">
                    <mxGeometry width="30" height="30" as="geometry">
                        <mxRectangle width="30" height="30" as="alternateBounds"/>
                    </mxGeometry>
                </mxCell>
                <mxCell id="rekhB66va6viN4RXd3Ok-346" value="&quot;id&quot; integer NOT NULL  AUTOINCREMENT" style="shape=partialRectangle;overflow=hidden;connectable=0;fillColor=none;align=left;strokeColor=inherit;top=0;left=0;bottom=0;right=0;spacingLeft=6;fontStyle=5;" parent="rekhB66va6viN4RXd3Ok-344" vertex="1">
                    <mxGeometry x="30" width="450" height="30" as="geometry">
                        <mxRectangle width="450" height="30" as="alternateBounds"/>
                    </mxGeometry>
                </mxCell>
                <mxCell id="rekhB66va6viN4RXd3Ok-347" value="" style="shape=tableRow;horizontal=0;startSize=0;swimlaneHead=0;swimlaneBody=0;fillColor=none;collapsible=0;dropTarget=0;points=[[0,0.5],[1,0.5]];portConstraint=eastwest;strokeColor=inherit;top=0;left=0;right=0;bottom=0;" parent="rekhB66va6viN4RXd3Ok-343" vertex="1">
                    <mxGeometry y="60" width="480" height="30" as="geometry"/>
                </mxCell>
                <mxCell id="rekhB66va6viN4RXd3Ok-348" value="" style="shape=partialRectangle;overflow=hidden;connectable=0;fillColor=none;strokeColor=inherit;top=0;left=0;bottom=0;right=0;" parent="rekhB66va6viN4RXd3Ok-347" vertex="1">
                    <mxGeometry width="30" height="30" as="geometry">
                        <mxRectangle width="30" height="30" as="alternateBounds"/>
                    </mxGeometry>
                </mxCell>
                <mxCell id="rekhB66va6viN4RXd3Ok-349" value="&quot;score&quot; integer NOT NULL" style="shape=partialRectangle;overflow=hidden;connectable=0;fillColor=none;align=left;strokeColor=inherit;top=0;left=0;bottom=0;right=0;spacingLeft=6;" parent="rekhB66va6viN4RXd3Ok-347" vertex="1">
                    <mxGeometry x="30" width="450" height="30" as="geometry">
                        <mxRectangle width="450" height="30" as="alternateBounds"/>
                    </mxGeometry>
                </mxCell>
                <mxCell id="rekhB66va6viN4RXd3Ok-350" value="" style="shape=tableRow;horizontal=0;startSize=0;swimlaneHead=0;swimlaneBody=0;fillColor=none;collapsible=0;dropTarget=0;points=[[0,0.5],[1,0.5]];portConstraint=eastwest;strokeColor=inherit;top=0;left=0;right=0;bottom=0;" parent="rekhB66va6viN4RXd3Ok-343" vertex="1">
                    <mxGeometry y="90" width="480" height="30" as="geometry"/>
                </mxCell>
                <mxCell id="rekhB66va6viN4RXd3Ok-351" value="" style="shape=partialRectangle;overflow=hidden;connectable=0;fillColor=none;strokeColor=inherit;top=0;left=0;bottom=0;right=0;" parent="rekhB66va6viN4RXd3Ok-350" vertex="1">
                    <mxGeometry width="30" height="30" as="geometry">
                        <mxRectangle width="30" height="30" as="alternateBounds"/>
                    </mxGeometry>
                </mxCell>
                <mxCell id="rekhB66va6viN4RXd3Ok-352" value="&quot;type&quot; varchar(1) NOT NULL" style="shape=partialRectangle;overflow=hidden;connectable=0;fillColor=none;align=left;strokeColor=inherit;top=0;left=0;bottom=0;right=0;spacingLeft=6;" parent="rekhB66va6viN4RXd3Ok-350" vertex="1">
                    <mxGeometry x="30" width="450" height="30" as="geometry">
                        <mxRectangle width="450" height="30" as="alternateBounds"/>
                    </mxGeometry>
                </mxCell>
                <mxCell id="rekhB66va6viN4RXd3Ok-353" value="" style="shape=tableRow;horizontal=0;startSize=0;swimlaneHead=0;swimlaneBody=0;fillColor=none;collapsible=0;dropTarget=0;points=[[0,0.5],[1,0.5]];portConstraint=eastwest;strokeColor=inherit;top=0;left=0;right=0;bottom=0;" parent="rekhB66va6viN4RXd3Ok-343" vertex="1">
                    <mxGeometry y="120" width="480" height="30" as="geometry"/>
                </mxCell>
                <mxCell id="rekhB66va6viN4RXd3Ok-354" value="" style="shape=partialRectangle;overflow=hidden;connectable=0;fillColor=none;strokeColor=inherit;top=0;left=0;bottom=0;right=0;" parent="rekhB66va6viN4RXd3Ok-353" vertex="1">
                    <mxGeometry width="30" height="30" as="geometry">
                        <mxRectangle width="30" height="30" as="alternateBounds"/>
                    </mxGeometry>
                </mxCell>
                <mxCell id="rekhB66va6viN4RXd3Ok-355" value="&quot;created&quot; datetime NOT NULL" style="shape=partialRectangle;overflow=hidden;connectable=0;fillColor=none;align=left;strokeColor=inherit;top=0;left=0;bottom=0;right=0;spacingLeft=6;" parent="rekhB66va6viN4RXd3Ok-353" vertex="1">
                    <mxGeometry x="30" width="450" height="30" as="geometry">
                        <mxRectangle width="450" height="30" as="alternateBounds"/>
                    </mxGeometry>
                </mxCell>
                <mxCell id="rekhB66va6viN4RXd3Ok-356" value="" style="shape=tableRow;horizontal=0;startSize=0;swimlaneHead=0;swimlaneBody=0;fillColor=none;collapsible=0;dropTarget=0;points=[[0,0.5],[1,0.5]];portConstraint=eastwest;strokeColor=inherit;top=0;left=0;right=0;bottom=0;" parent="rekhB66va6viN4RXd3Ok-343" vertex="1">
                    <mxGeometry y="150" width="480" height="30" as="geometry"/>
                </mxCell>
                <mxCell id="rekhB66va6viN4RXd3Ok-357" value="" style="shape=partialRectangle;overflow=hidden;connectable=0;fillColor=none;strokeColor=inherit;top=0;left=0;bottom=0;right=0;" parent="rekhB66va6viN4RXd3Ok-356" vertex="1">
                    <mxGeometry width="30" height="30" as="geometry">
                        <mxRectangle width="30" height="30" as="alternateBounds"/>
                    </mxGeometry>
                </mxCell>
                <mxCell id="rekhB66va6viN4RXd3Ok-358" value="&quot;post_id&quot; bigint NOT NULL REFERENCES &quot;posts&quot; (&quot;id&quot;) DEFERRABLE INITIALLY DEFERRED" style="shape=partialRectangle;overflow=hidden;connectable=0;fillColor=none;align=left;strokeColor=inherit;top=0;left=0;bottom=0;right=0;spacingLeft=6;" parent="rekhB66va6viN4RXd3Ok-356" vertex="1">
                    <mxGeometry x="30" width="450" height="30" as="geometry">
                        <mxRectangle width="450" height="30" as="alternateBounds"/>
                    </mxGeometry>
                </mxCell>
                <mxCell id="rekhB66va6viN4RXd3Ok-359" value="" style="shape=tableRow;horizontal=0;startSize=0;swimlaneHead=0;swimlaneBody=0;fillColor=none;collapsible=0;dropTarget=0;points=[[0,0.5],[1,0.5]];portConstraint=eastwest;strokeColor=inherit;top=0;left=0;right=0;bottom=0;" parent="rekhB66va6viN4RXd3Ok-343" vertex="1">
                    <mxGeometry y="180" width="480" height="30" as="geometry"/>
                </mxCell>
                <mxCell id="rekhB66va6viN4RXd3Ok-360" value="" style="shape=partialRectangle;overflow=hidden;connectable=0;fillColor=none;strokeColor=inherit;top=0;left=0;bottom=0;right=0;" parent="rekhB66va6viN4RXd3Ok-359" vertex="1">
                    <mxGeometry width="30" height="30" as="geometry">
                        <mxRectangle width="30" height="30" as="alternateBounds"/>
                    </mxGeometry>
                </mxCell>
                <mxCell id="rekhB66va6viN4RXd3Ok-361" value="&quot;user_id&quot; bigint NOT NULL REFERENCES &quot;social_network_users&quot; (&quot;fameusers_ptr_id&quot;) DEFERRABLE INITIALLY DEFERRED" style="shape=partialRectangle;overflow=hidden;connectable=0;fillColor=none;align=left;strokeColor=inherit;top=0;left=0;bottom=0;right=0;spacingLeft=6;" parent="rekhB66va6viN4RXd3Ok-359" vertex="1">
                    <mxGeometry x="30" width="450" height="30" as="geometry">
                        <mxRectangle width="450" height="30" as="alternateBounds"/>
                    </mxGeometry>
                </mxCell>
                <mxCell id="rekhB66va6viN4RXd3Ok-385" style="edgeStyle=orthogonalEdgeStyle;rounded=0;orthogonalLoop=1;jettySize=auto;html=1;exitX=0;exitY=0.5;exitDx=0;exitDy=0;curved=1;strokeColor=#FF621F;" parent="1" source="rekhB66va6viN4RXd3Ok-327" target="rekhB66va6viN4RXd3Ok-238" edge="1">
                    <mxGeometry relative="1" as="geometry"/>
                </mxCell>
                <mxCell id="4g2gMuMm-FKann9IZiOH-4" style="edgeStyle=orthogonalEdgeStyle;rounded=0;orthogonalLoop=1;jettySize=auto;html=1;exitX=1;exitY=0.5;exitDx=0;exitDy=0;entryX=1;entryY=0.5;entryDx=0;entryDy=0;curved=1;" parent="1" source="rekhB66va6viN4RXd3Ok-337" target="rekhB66va6viN4RXd3Ok-327" edge="1">
                    <mxGeometry relative="1" as="geometry"/>
                </mxCell>
                <mxCell id="4g2gMuMm-FKann9IZiOH-5" style="edgeStyle=orthogonalEdgeStyle;rounded=0;orthogonalLoop=1;jettySize=auto;html=1;exitX=1;exitY=0.5;exitDx=0;exitDy=0;entryX=1;entryY=0.5;entryDx=0;entryDy=0;curved=1;" parent="1" source="rekhB66va6viN4RXd3Ok-340" target="rekhB66va6viN4RXd3Ok-327" edge="1">
                    <mxGeometry relative="1" as="geometry"/>
                </mxCell>
                <mxCell id="4g2gMuMm-FKann9IZiOH-10" style="edgeStyle=orthogonalEdgeStyle;rounded=0;orthogonalLoop=1;jettySize=auto;html=1;exitX=1;exitY=0.5;exitDx=0;exitDy=0;entryX=0;entryY=0.5;entryDx=0;entryDy=0;curved=1;strokeColor=#66CC00;" parent="1" source="rekhB66va6viN4RXd3Ok-118" target="rekhB66va6viN4RXd3Ok-327" edge="1">
                    <mxGeometry relative="1" as="geometry"/>
                </mxCell>
                <mxCell id="4g2gMuMm-FKann9IZiOH-11" style="edgeStyle=orthogonalEdgeStyle;rounded=0;orthogonalLoop=1;jettySize=auto;html=1;exitX=0;exitY=0.5;exitDx=0;exitDy=0;entryX=0;entryY=0.5;entryDx=0;entryDy=0;curved=1;fillColor=#3D1FFF;strokeColor=#451FFF;" parent="1" source="rekhB66va6viN4RXd3Ok-359" target="rekhB66va6viN4RXd3Ok-327" edge="1">
                    <mxGeometry relative="1" as="geometry"/>
                </mxCell>
                <mxCell id="4g2gMuMm-FKann9IZiOH-12" style="edgeStyle=orthogonalEdgeStyle;rounded=0;orthogonalLoop=1;jettySize=auto;html=1;exitX=0;exitY=0.5;exitDx=0;exitDy=0;curved=1;fillColor=#542AFF;strokeColor=#451FFF;" parent="1" source="rekhB66va6viN4RXd3Ok-356" target="rekhB66va6viN4RXd3Ok-109" edge="1">
                    <mxGeometry relative="1" as="geometry"/>
                </mxCell>
                <mxCell id="4g2gMuMm-FKann9IZiOH-13" style="edgeStyle=orthogonalEdgeStyle;curved=1;rounded=0;orthogonalLoop=1;jettySize=auto;html=1;exitX=1;exitY=0.5;exitDx=0;exitDy=0;entryX=1;entryY=0.5;entryDx=0;entryDy=0;elbow=vertical;" parent="1" source="rekhB66va6viN4RXd3Ok-158" target="rekhB66va6viN4RXd3Ok-178" edge="1">
                    <mxGeometry relative="1" as="geometry"/>
                </mxCell>
                <mxCell id="4g2gMuMm-FKann9IZiOH-14" value="&quot;django_migrations&quot;" style="shape=table;startSize=30;container=1;collapsible=1;childLayout=tableLayout;fixedRows=1;rowLines=0;fontStyle=1;align=center;resizeLast=1;fillColor=#869F9A;" parent="1" vertex="1">
                    <mxGeometry x="850" y="1580" width="280" height="150" as="geometry"/>
                </mxCell>
                <mxCell id="4g2gMuMm-FKann9IZiOH-15" value="" style="shape=tableRow;horizontal=0;startSize=0;swimlaneHead=0;swimlaneBody=0;fillColor=none;collapsible=0;dropTarget=0;points=[[0,0.5],[1,0.5]];portConstraint=eastwest;strokeColor=inherit;top=0;left=0;right=0;bottom=1;" parent="4g2gMuMm-FKann9IZiOH-14" vertex="1">
                    <mxGeometry y="30" width="280" height="30" as="geometry"/>
                </mxCell>
                <mxCell id="4g2gMuMm-FKann9IZiOH-16" value="PK" style="shape=partialRectangle;overflow=hidden;connectable=0;fillColor=none;strokeColor=inherit;top=0;left=0;bottom=0;right=0;fontStyle=1;" parent="4g2gMuMm-FKann9IZiOH-15" vertex="1">
                    <mxGeometry width="30" height="30" as="geometry">
                        <mxRectangle width="30" height="30" as="alternateBounds"/>
                    </mxGeometry>
                </mxCell>
                <mxCell id="4g2gMuMm-FKann9IZiOH-17" value="&quot;id&quot; integer NOT NULL  AUTOINCREMENT" style="shape=partialRectangle;overflow=hidden;connectable=0;fillColor=none;align=left;strokeColor=inherit;top=0;left=0;bottom=0;right=0;spacingLeft=6;fontStyle=5;" parent="4g2gMuMm-FKann9IZiOH-15" vertex="1">
                    <mxGeometry x="30" width="250" height="30" as="geometry">
                        <mxRectangle width="250" height="30" as="alternateBounds"/>
                    </mxGeometry>
                </mxCell>
                <mxCell id="4g2gMuMm-FKann9IZiOH-18" value="" style="shape=tableRow;horizontal=0;startSize=0;swimlaneHead=0;swimlaneBody=0;fillColor=none;collapsible=0;dropTarget=0;points=[[0,0.5],[1,0.5]];portConstraint=eastwest;strokeColor=inherit;top=0;left=0;right=0;bottom=0;" parent="4g2gMuMm-FKann9IZiOH-14" vertex="1">
                    <mxGeometry y="60" width="280" height="30" as="geometry"/>
                </mxCell>
                <mxCell id="4g2gMuMm-FKann9IZiOH-19" value="" style="shape=partialRectangle;overflow=hidden;connectable=0;fillColor=none;strokeColor=inherit;top=0;left=0;bottom=0;right=0;" parent="4g2gMuMm-FKann9IZiOH-18" vertex="1">
                    <mxGeometry width="30" height="30" as="geometry">
                        <mxRectangle width="30" height="30" as="alternateBounds"/>
                    </mxGeometry>
                </mxCell>
                <mxCell id="4g2gMuMm-FKann9IZiOH-20" value="&quot;app&quot; varchar(255) NOT NULL" style="shape=partialRectangle;overflow=hidden;connectable=0;fillColor=none;align=left;strokeColor=inherit;top=0;left=0;bottom=0;right=0;spacingLeft=6;" parent="4g2gMuMm-FKann9IZiOH-18" vertex="1">
                    <mxGeometry x="30" width="250" height="30" as="geometry">
                        <mxRectangle width="250" height="30" as="alternateBounds"/>
                    </mxGeometry>
                </mxCell>
                <mxCell id="4g2gMuMm-FKann9IZiOH-21" value="" style="shape=tableRow;horizontal=0;startSize=0;swimlaneHead=0;swimlaneBody=0;fillColor=none;collapsible=0;dropTarget=0;points=[[0,0.5],[1,0.5]];portConstraint=eastwest;strokeColor=inherit;top=0;left=0;right=0;bottom=0;" parent="4g2gMuMm-FKann9IZiOH-14" vertex="1">
                    <mxGeometry y="90" width="280" height="30" as="geometry"/>
                </mxCell>
                <mxCell id="4g2gMuMm-FKann9IZiOH-22" value="" style="shape=partialRectangle;overflow=hidden;connectable=0;fillColor=none;strokeColor=inherit;top=0;left=0;bottom=0;right=0;" parent="4g2gMuMm-FKann9IZiOH-21" vertex="1">
                    <mxGeometry width="30" height="30" as="geometry">
                        <mxRectangle width="30" height="30" as="alternateBounds"/>
                    </mxGeometry>
                </mxCell>
                <mxCell id="4g2gMuMm-FKann9IZiOH-23" value="&quot;name&quot; varchar(255) NOT NULL" style="shape=partialRectangle;overflow=hidden;connectable=0;fillColor=none;align=left;strokeColor=inherit;top=0;left=0;bottom=0;right=0;spacingLeft=6;" parent="4g2gMuMm-FKann9IZiOH-21" vertex="1">
                    <mxGeometry x="30" width="250" height="30" as="geometry">
                        <mxRectangle width="250" height="30" as="alternateBounds"/>
                    </mxGeometry>
                </mxCell>
                <mxCell id="4g2gMuMm-FKann9IZiOH-24" value="" style="shape=tableRow;horizontal=0;startSize=0;swimlaneHead=0;swimlaneBody=0;fillColor=none;collapsible=0;dropTarget=0;points=[[0,0.5],[1,0.5]];portConstraint=eastwest;strokeColor=inherit;top=0;left=0;right=0;bottom=0;" parent="4g2gMuMm-FKann9IZiOH-14" vertex="1">
                    <mxGeometry y="120" width="280" height="30" as="geometry"/>
                </mxCell>
                <mxCell id="4g2gMuMm-FKann9IZiOH-25" value="" style="shape=partialRectangle;overflow=hidden;connectable=0;fillColor=none;strokeColor=inherit;top=0;left=0;bottom=0;right=0;" parent="4g2gMuMm-FKann9IZiOH-24" vertex="1">
                    <mxGeometry width="30" height="30" as="geometry">
                        <mxRectangle width="30" height="30" as="alternateBounds"/>
                    </mxGeometry>
                </mxCell>
                <mxCell id="4g2gMuMm-FKann9IZiOH-26" value="&quot;applied&quot; datetime NOT NULL" style="shape=partialRectangle;overflow=hidden;connectable=0;fillColor=none;align=left;strokeColor=inherit;top=0;left=0;bottom=0;right=0;spacingLeft=6;" parent="4g2gMuMm-FKann9IZiOH-24" vertex="1">
                    <mxGeometry x="30" width="250" height="30" as="geometry">
                        <mxRectangle width="250" height="30" as="alternateBounds"/>
                    </mxGeometry>
                </mxCell>
                <mxCell id="4g2gMuMm-FKann9IZiOH-27" value="sqlite_sequence(name,seq);" style="shape=table;startSize=30;container=1;collapsible=1;childLayout=tableLayout;fixedRows=1;rowLines=0;fontStyle=1;align=center;resizeLast=1;" parent="1" vertex="1">
                    <mxGeometry x="920" y="1750" width="60" height="30" as="geometry"/>
                </mxCell>
                <mxCell id="4g2gMuMm-FKann9IZiOH-28" value="&quot;django_content_type&quot;" style="shape=table;startSize=30;container=1;collapsible=1;childLayout=tableLayout;fixedRows=1;rowLines=0;fontStyle=1;align=center;resizeLast=1;" parent="1" vertex="1">
                    <mxGeometry x="840" y="1400" width="280" height="120" as="geometry"/>
                </mxCell>
                <mxCell id="4g2gMuMm-FKann9IZiOH-29" value="" style="shape=tableRow;horizontal=0;startSize=0;swimlaneHead=0;swimlaneBody=0;fillColor=none;collapsible=0;dropTarget=0;points=[[0,0.5],[1,0.5]];portConstraint=eastwest;strokeColor=inherit;top=0;left=0;right=0;bottom=1;" parent="4g2gMuMm-FKann9IZiOH-28" vertex="1">
                    <mxGeometry y="30" width="280" height="30" as="geometry"/>
                </mxCell>
                <mxCell id="4g2gMuMm-FKann9IZiOH-30" value="PK" style="shape=partialRectangle;overflow=hidden;connectable=0;fillColor=none;strokeColor=inherit;top=0;left=0;bottom=0;right=0;fontStyle=1;" parent="4g2gMuMm-FKann9IZiOH-29" vertex="1">
                    <mxGeometry width="30" height="30" as="geometry">
                        <mxRectangle width="30" height="30" as="alternateBounds"/>
                    </mxGeometry>
                </mxCell>
                <mxCell id="4g2gMuMm-FKann9IZiOH-31" value="&quot;id&quot; integer NOT NULL  AUTOINCREMENT" style="shape=partialRectangle;overflow=hidden;connectable=0;fillColor=none;align=left;strokeColor=inherit;top=0;left=0;bottom=0;right=0;spacingLeft=6;fontStyle=5;" parent="4g2gMuMm-FKann9IZiOH-29" vertex="1">
                    <mxGeometry x="30" width="250" height="30" as="geometry">
                        <mxRectangle width="250" height="30" as="alternateBounds"/>
                    </mxGeometry>
                </mxCell>
                <mxCell id="4g2gMuMm-FKann9IZiOH-32" value="" style="shape=tableRow;horizontal=0;startSize=0;swimlaneHead=0;swimlaneBody=0;fillColor=none;collapsible=0;dropTarget=0;points=[[0,0.5],[1,0.5]];portConstraint=eastwest;strokeColor=inherit;top=0;left=0;right=0;bottom=0;" parent="4g2gMuMm-FKann9IZiOH-28" vertex="1">
                    <mxGeometry y="60" width="280" height="30" as="geometry"/>
                </mxCell>
                <mxCell id="4g2gMuMm-FKann9IZiOH-33" value="" style="shape=partialRectangle;overflow=hidden;connectable=0;fillColor=none;strokeColor=inherit;top=0;left=0;bottom=0;right=0;" parent="4g2gMuMm-FKann9IZiOH-32" vertex="1">
                    <mxGeometry width="30" height="30" as="geometry">
                        <mxRectangle width="30" height="30" as="alternateBounds"/>
                    </mxGeometry>
                </mxCell>
                <mxCell id="4g2gMuMm-FKann9IZiOH-34" value="&quot;app_label&quot; varchar(100) NOT NULL" style="shape=partialRectangle;overflow=hidden;connectable=0;fillColor=none;align=left;strokeColor=inherit;top=0;left=0;bottom=0;right=0;spacingLeft=6;" parent="4g2gMuMm-FKann9IZiOH-32" vertex="1">
                    <mxGeometry x="30" width="250" height="30" as="geometry">
                        <mxRectangle width="250" height="30" as="alternateBounds"/>
                    </mxGeometry>
                </mxCell>
                <mxCell id="4g2gMuMm-FKann9IZiOH-35" value="" style="shape=tableRow;horizontal=0;startSize=0;swimlaneHead=0;swimlaneBody=0;fillColor=none;collapsible=0;dropTarget=0;points=[[0,0.5],[1,0.5]];portConstraint=eastwest;strokeColor=inherit;top=0;left=0;right=0;bottom=0;" parent="4g2gMuMm-FKann9IZiOH-28" vertex="1">
                    <mxGeometry y="90" width="280" height="30" as="geometry"/>
                </mxCell>
                <mxCell id="4g2gMuMm-FKann9IZiOH-36" value="" style="shape=partialRectangle;overflow=hidden;connectable=0;fillColor=none;strokeColor=inherit;top=0;left=0;bottom=0;right=0;" parent="4g2gMuMm-FKann9IZiOH-35" vertex="1">
                    <mxGeometry width="30" height="30" as="geometry">
                        <mxRectangle width="30" height="30" as="alternateBounds"/>
                    </mxGeometry>
                </mxCell>
                <mxCell id="4g2gMuMm-FKann9IZiOH-37" value="&quot;model&quot; varchar(100) NOT NULL" style="shape=partialRectangle;overflow=hidden;connectable=0;fillColor=none;align=left;strokeColor=inherit;top=0;left=0;bottom=0;right=0;spacingLeft=6;" parent="4g2gMuMm-FKann9IZiOH-35" vertex="1">
                    <mxGeometry x="30" width="250" height="30" as="geometry">
                        <mxRectangle width="250" height="30" as="alternateBounds"/>
                    </mxGeometry>
                </mxCell>
                <mxCell id="4g2gMuMm-FKann9IZiOH-38" value="&quot;django_admin_log&quot;" style="shape=table;startSize=30;container=1;collapsible=1;childLayout=tableLayout;fixedRows=1;rowLines=0;fontStyle=1;align=center;resizeLast=1;" parent="1" vertex="1">
                    <mxGeometry x="164" y="1430" width="500" height="270" as="geometry"/>
                </mxCell>
                <mxCell id="4g2gMuMm-FKann9IZiOH-39" value="" style="shape=tableRow;horizontal=0;startSize=0;swimlaneHead=0;swimlaneBody=0;fillColor=none;collapsible=0;dropTarget=0;points=[[0,0.5],[1,0.5]];portConstraint=eastwest;strokeColor=inherit;top=0;left=0;right=0;bottom=1;" parent="4g2gMuMm-FKann9IZiOH-38" vertex="1">
                    <mxGeometry y="30" width="500" height="30" as="geometry"/>
                </mxCell>
                <mxCell id="4g2gMuMm-FKann9IZiOH-40" value="PK" style="shape=partialRectangle;overflow=hidden;connectable=0;fillColor=none;strokeColor=inherit;top=0;left=0;bottom=0;right=0;fontStyle=1;" parent="4g2gMuMm-FKann9IZiOH-39" vertex="1">
                    <mxGeometry width="30" height="30" as="geometry">
                        <mxRectangle width="30" height="30" as="alternateBounds"/>
                    </mxGeometry>
                </mxCell>
                <mxCell id="4g2gMuMm-FKann9IZiOH-41" value="&quot;id&quot; integer NOT NULL  AUTOINCREMENT" style="shape=partialRectangle;overflow=hidden;connectable=0;fillColor=none;align=left;strokeColor=inherit;top=0;left=0;bottom=0;right=0;spacingLeft=6;fontStyle=5;" parent="4g2gMuMm-FKann9IZiOH-39" vertex="1">
                    <mxGeometry x="30" width="470" height="30" as="geometry">
                        <mxRectangle width="470" height="30" as="alternateBounds"/>
                    </mxGeometry>
                </mxCell>
                <mxCell id="4g2gMuMm-FKann9IZiOH-42" value="" style="shape=tableRow;horizontal=0;startSize=0;swimlaneHead=0;swimlaneBody=0;fillColor=none;collapsible=0;dropTarget=0;points=[[0,0.5],[1,0.5]];portConstraint=eastwest;strokeColor=inherit;top=0;left=0;right=0;bottom=0;" parent="4g2gMuMm-FKann9IZiOH-38" vertex="1">
                    <mxGeometry y="60" width="500" height="30" as="geometry"/>
                </mxCell>
                <mxCell id="4g2gMuMm-FKann9IZiOH-43" value="" style="shape=partialRectangle;overflow=hidden;connectable=0;fillColor=none;strokeColor=inherit;top=0;left=0;bottom=0;right=0;" parent="4g2gMuMm-FKann9IZiOH-42" vertex="1">
                    <mxGeometry width="30" height="30" as="geometry">
                        <mxRectangle width="30" height="30" as="alternateBounds"/>
                    </mxGeometry>
                </mxCell>
                <mxCell id="4g2gMuMm-FKann9IZiOH-44" value="&quot;object_id&quot; text NULL" style="shape=partialRectangle;overflow=hidden;connectable=0;fillColor=none;align=left;strokeColor=inherit;top=0;left=0;bottom=0;right=0;spacingLeft=6;" parent="4g2gMuMm-FKann9IZiOH-42" vertex="1">
                    <mxGeometry x="30" width="470" height="30" as="geometry">
                        <mxRectangle width="470" height="30" as="alternateBounds"/>
                    </mxGeometry>
                </mxCell>
                <mxCell id="4g2gMuMm-FKann9IZiOH-45" value="" style="shape=tableRow;horizontal=0;startSize=0;swimlaneHead=0;swimlaneBody=0;fillColor=none;collapsible=0;dropTarget=0;points=[[0,0.5],[1,0.5]];portConstraint=eastwest;strokeColor=inherit;top=0;left=0;right=0;bottom=0;" parent="4g2gMuMm-FKann9IZiOH-38" vertex="1">
                    <mxGeometry y="90" width="500" height="30" as="geometry"/>
                </mxCell>
                <mxCell id="4g2gMuMm-FKann9IZiOH-46" value="" style="shape=partialRectangle;overflow=hidden;connectable=0;fillColor=none;strokeColor=inherit;top=0;left=0;bottom=0;right=0;" parent="4g2gMuMm-FKann9IZiOH-45" vertex="1">
                    <mxGeometry width="30" height="30" as="geometry">
                        <mxRectangle width="30" height="30" as="alternateBounds"/>
                    </mxGeometry>
                </mxCell>
                <mxCell id="4g2gMuMm-FKann9IZiOH-47" value="&quot;object_repr&quot; varchar(200) NOT NULL" style="shape=partialRectangle;overflow=hidden;connectable=0;fillColor=none;align=left;strokeColor=inherit;top=0;left=0;bottom=0;right=0;spacingLeft=6;" parent="4g2gMuMm-FKann9IZiOH-45" vertex="1">
                    <mxGeometry x="30" width="470" height="30" as="geometry">
                        <mxRectangle width="470" height="30" as="alternateBounds"/>
                    </mxGeometry>
                </mxCell>
                <mxCell id="4g2gMuMm-FKann9IZiOH-48" value="" style="shape=tableRow;horizontal=0;startSize=0;swimlaneHead=0;swimlaneBody=0;fillColor=none;collapsible=0;dropTarget=0;points=[[0,0.5],[1,0.5]];portConstraint=eastwest;strokeColor=inherit;top=0;left=0;right=0;bottom=0;" parent="4g2gMuMm-FKann9IZiOH-38" vertex="1">
                    <mxGeometry y="120" width="500" height="30" as="geometry"/>
                </mxCell>
                <mxCell id="4g2gMuMm-FKann9IZiOH-49" value="" style="shape=partialRectangle;overflow=hidden;connectable=0;fillColor=none;strokeColor=inherit;top=0;left=0;bottom=0;right=0;" parent="4g2gMuMm-FKann9IZiOH-48" vertex="1">
                    <mxGeometry width="30" height="30" as="geometry">
                        <mxRectangle width="30" height="30" as="alternateBounds"/>
                    </mxGeometry>
                </mxCell>
                <mxCell id="4g2gMuMm-FKann9IZiOH-50" value="&quot;action_flag&quot; smallint unsigned NOT NULL CHECK (&quot;action_flag&quot; &gt;= 0)" style="shape=partialRectangle;overflow=hidden;connectable=0;fillColor=none;align=left;strokeColor=inherit;top=0;left=0;bottom=0;right=0;spacingLeft=6;" parent="4g2gMuMm-FKann9IZiOH-48" vertex="1">
                    <mxGeometry x="30" width="470" height="30" as="geometry">
                        <mxRectangle width="470" height="30" as="alternateBounds"/>
                    </mxGeometry>
                </mxCell>
                <mxCell id="4g2gMuMm-FKann9IZiOH-51" value="" style="shape=tableRow;horizontal=0;startSize=0;swimlaneHead=0;swimlaneBody=0;fillColor=none;collapsible=0;dropTarget=0;points=[[0,0.5],[1,0.5]];portConstraint=eastwest;strokeColor=inherit;top=0;left=0;right=0;bottom=0;" parent="4g2gMuMm-FKann9IZiOH-38" vertex="1">
                    <mxGeometry y="150" width="500" height="30" as="geometry"/>
                </mxCell>
                <mxCell id="4g2gMuMm-FKann9IZiOH-52" value="" style="shape=partialRectangle;overflow=hidden;connectable=0;fillColor=none;strokeColor=inherit;top=0;left=0;bottom=0;right=0;" parent="4g2gMuMm-FKann9IZiOH-51" vertex="1">
                    <mxGeometry width="30" height="30" as="geometry">
                        <mxRectangle width="30" height="30" as="alternateBounds"/>
                    </mxGeometry>
                </mxCell>
                <mxCell id="4g2gMuMm-FKann9IZiOH-53" value="&quot;change_message&quot; text NOT NULL" style="shape=partialRectangle;overflow=hidden;connectable=0;fillColor=none;align=left;strokeColor=inherit;top=0;left=0;bottom=0;right=0;spacingLeft=6;" parent="4g2gMuMm-FKann9IZiOH-51" vertex="1">
                    <mxGeometry x="30" width="470" height="30" as="geometry">
                        <mxRectangle width="470" height="30" as="alternateBounds"/>
                    </mxGeometry>
                </mxCell>
                <mxCell id="4g2gMuMm-FKann9IZiOH-54" value="" style="shape=tableRow;horizontal=0;startSize=0;swimlaneHead=0;swimlaneBody=0;fillColor=none;collapsible=0;dropTarget=0;points=[[0,0.5],[1,0.5]];portConstraint=eastwest;strokeColor=inherit;top=0;left=0;right=0;bottom=0;" parent="4g2gMuMm-FKann9IZiOH-38" vertex="1">
                    <mxGeometry y="180" width="500" height="30" as="geometry"/>
                </mxCell>
                <mxCell id="4g2gMuMm-FKann9IZiOH-55" value="" style="shape=partialRectangle;overflow=hidden;connectable=0;fillColor=none;strokeColor=inherit;top=0;left=0;bottom=0;right=0;" parent="4g2gMuMm-FKann9IZiOH-54" vertex="1">
                    <mxGeometry width="30" height="30" as="geometry">
                        <mxRectangle width="30" height="30" as="alternateBounds"/>
                    </mxGeometry>
                </mxCell>
                <mxCell id="4g2gMuMm-FKann9IZiOH-56" value="&quot;content_type_id&quot; integer NULL REFERENCES &quot;django_content_type&quot; (&quot;id&quot;) DEFERRABLE INITIALLY DEFERRED" style="shape=partialRectangle;overflow=hidden;connectable=0;fillColor=none;align=left;strokeColor=inherit;top=0;left=0;bottom=0;right=0;spacingLeft=6;" parent="4g2gMuMm-FKann9IZiOH-54" vertex="1">
                    <mxGeometry x="30" width="470" height="30" as="geometry">
                        <mxRectangle width="470" height="30" as="alternateBounds"/>
                    </mxGeometry>
                </mxCell>
                <mxCell id="4g2gMuMm-FKann9IZiOH-57" value="" style="shape=tableRow;horizontal=0;startSize=0;swimlaneHead=0;swimlaneBody=0;fillColor=none;collapsible=0;dropTarget=0;points=[[0,0.5],[1,0.5]];portConstraint=eastwest;strokeColor=inherit;top=0;left=0;right=0;bottom=0;" parent="4g2gMuMm-FKann9IZiOH-38" vertex="1">
                    <mxGeometry y="210" width="500" height="30" as="geometry"/>
                </mxCell>
                <mxCell id="4g2gMuMm-FKann9IZiOH-58" value="" style="shape=partialRectangle;overflow=hidden;connectable=0;fillColor=none;strokeColor=inherit;top=0;left=0;bottom=0;right=0;" parent="4g2gMuMm-FKann9IZiOH-57" vertex="1">
                    <mxGeometry width="30" height="30" as="geometry">
                        <mxRectangle width="30" height="30" as="alternateBounds"/>
                    </mxGeometry>
                </mxCell>
                <mxCell id="4g2gMuMm-FKann9IZiOH-59" value="&quot;user_id&quot; bigint NOT NULL REFERENCES &quot;fame_users&quot; (&quot;id&quot;) DEFERRABLE INITIALLY DEFERRED" style="shape=partialRectangle;overflow=hidden;connectable=0;fillColor=none;align=left;strokeColor=inherit;top=0;left=0;bottom=0;right=0;spacingLeft=6;" parent="4g2gMuMm-FKann9IZiOH-57" vertex="1">
                    <mxGeometry x="30" width="470" height="30" as="geometry">
                        <mxRectangle width="470" height="30" as="alternateBounds"/>
                    </mxGeometry>
                </mxCell>
                <mxCell id="4g2gMuMm-FKann9IZiOH-60" value="" style="shape=tableRow;horizontal=0;startSize=0;swimlaneHead=0;swimlaneBody=0;fillColor=none;collapsible=0;dropTarget=0;points=[[0,0.5],[1,0.5]];portConstraint=eastwest;strokeColor=inherit;top=0;left=0;right=0;bottom=0;" parent="4g2gMuMm-FKann9IZiOH-38" vertex="1">
                    <mxGeometry y="240" width="500" height="30" as="geometry"/>
                </mxCell>
                <mxCell id="4g2gMuMm-FKann9IZiOH-61" value="" style="shape=partialRectangle;overflow=hidden;connectable=0;fillColor=none;strokeColor=inherit;top=0;left=0;bottom=0;right=0;" parent="4g2gMuMm-FKann9IZiOH-60" vertex="1">
                    <mxGeometry width="30" height="30" as="geometry">
                        <mxRectangle width="30" height="30" as="alternateBounds"/>
                    </mxGeometry>
                </mxCell>
                <mxCell id="4g2gMuMm-FKann9IZiOH-62" value="&quot;action_time&quot; datetime NOT NULL" style="shape=partialRectangle;overflow=hidden;connectable=0;fillColor=none;align=left;strokeColor=inherit;top=0;left=0;bottom=0;right=0;spacingLeft=6;" parent="4g2gMuMm-FKann9IZiOH-60" vertex="1">
                    <mxGeometry x="30" width="470" height="30" as="geometry">
                        <mxRectangle width="470" height="30" as="alternateBounds"/>
                    </mxGeometry>
                </mxCell>
                <mxCell id="4g2gMuMm-FKann9IZiOH-63" value="&quot;django_session&quot;" style="shape=table;startSize=30;container=1;collapsible=1;childLayout=tableLayout;fixedRows=1;rowLines=0;fontStyle=1;align=center;resizeLast=1;fillColor=#869F9A;" parent="1" vertex="1">
                    <mxGeometry x="1190" y="1580" width="260" height="120" as="geometry"/>
                </mxCell>
                <mxCell id="4g2gMuMm-FKann9IZiOH-64" value="" style="shape=tableRow;horizontal=0;startSize=0;swimlaneHead=0;swimlaneBody=0;fillColor=none;collapsible=0;dropTarget=0;points=[[0,0.5],[1,0.5]];portConstraint=eastwest;strokeColor=inherit;top=0;left=0;right=0;bottom=1;" parent="4g2gMuMm-FKann9IZiOH-63" vertex="1">
                    <mxGeometry y="30" width="260" height="30" as="geometry"/>
                </mxCell>
                <mxCell id="4g2gMuMm-FKann9IZiOH-65" value="PK" style="shape=partialRectangle;overflow=hidden;connectable=0;fillColor=none;strokeColor=inherit;top=0;left=0;bottom=0;right=0;fontStyle=1;" parent="4g2gMuMm-FKann9IZiOH-64" vertex="1">
                    <mxGeometry width="30" height="30" as="geometry">
                        <mxRectangle width="30" height="30" as="alternateBounds"/>
                    </mxGeometry>
                </mxCell>
                <mxCell id="4g2gMuMm-FKann9IZiOH-66" value="&quot;session_key&quot; varchar(40) NOT NULL " style="shape=partialRectangle;overflow=hidden;connectable=0;fillColor=none;align=left;strokeColor=inherit;top=0;left=0;bottom=0;right=0;spacingLeft=6;fontStyle=5;" parent="4g2gMuMm-FKann9IZiOH-64" vertex="1">
                    <mxGeometry x="30" width="230" height="30" as="geometry">
                        <mxRectangle width="230" height="30" as="alternateBounds"/>
                    </mxGeometry>
                </mxCell>
                <mxCell id="4g2gMuMm-FKann9IZiOH-67" value="" style="shape=tableRow;horizontal=0;startSize=0;swimlaneHead=0;swimlaneBody=0;fillColor=none;collapsible=0;dropTarget=0;points=[[0,0.5],[1,0.5]];portConstraint=eastwest;strokeColor=inherit;top=0;left=0;right=0;bottom=0;" parent="4g2gMuMm-FKann9IZiOH-63" vertex="1">
                    <mxGeometry y="60" width="260" height="30" as="geometry"/>
                </mxCell>
                <mxCell id="4g2gMuMm-FKann9IZiOH-68" value="" style="shape=partialRectangle;overflow=hidden;connectable=0;fillColor=none;strokeColor=inherit;top=0;left=0;bottom=0;right=0;" parent="4g2gMuMm-FKann9IZiOH-67" vertex="1">
                    <mxGeometry width="30" height="30" as="geometry">
                        <mxRectangle width="30" height="30" as="alternateBounds"/>
                    </mxGeometry>
                </mxCell>
                <mxCell id="4g2gMuMm-FKann9IZiOH-69" value="&quot;session_data&quot; text NOT NULL" style="shape=partialRectangle;overflow=hidden;connectable=0;fillColor=none;align=left;strokeColor=inherit;top=0;left=0;bottom=0;right=0;spacingLeft=6;" parent="4g2gMuMm-FKann9IZiOH-67" vertex="1">
                    <mxGeometry x="30" width="230" height="30" as="geometry">
                        <mxRectangle width="230" height="30" as="alternateBounds"/>
                    </mxGeometry>
                </mxCell>
                <mxCell id="4g2gMuMm-FKann9IZiOH-70" value="" style="shape=tableRow;horizontal=0;startSize=0;swimlaneHead=0;swimlaneBody=0;fillColor=none;collapsible=0;dropTarget=0;points=[[0,0.5],[1,0.5]];portConstraint=eastwest;strokeColor=inherit;top=0;left=0;right=0;bottom=0;" parent="4g2gMuMm-FKann9IZiOH-63" vertex="1">
                    <mxGeometry y="90" width="260" height="30" as="geometry"/>
                </mxCell>
                <mxCell id="4g2gMuMm-FKann9IZiOH-71" value="" style="shape=partialRectangle;overflow=hidden;connectable=0;fillColor=none;strokeColor=inherit;top=0;left=0;bottom=0;right=0;" parent="4g2gMuMm-FKann9IZiOH-70" vertex="1">
                    <mxGeometry width="30" height="30" as="geometry">
                        <mxRectangle width="30" height="30" as="alternateBounds"/>
                    </mxGeometry>
                </mxCell>
                <mxCell id="4g2gMuMm-FKann9IZiOH-72" value="&quot;expire_date&quot; datetime NOT NULL" style="shape=partialRectangle;overflow=hidden;connectable=0;fillColor=none;align=left;strokeColor=inherit;top=0;left=0;bottom=0;right=0;spacingLeft=6;" parent="4g2gMuMm-FKann9IZiOH-70" vertex="1">
                    <mxGeometry x="30" width="230" height="30" as="geometry">
                        <mxRectangle width="230" height="30" as="alternateBounds"/>
                    </mxGeometry>
                </mxCell>
                <mxCell id="4g2gMuMm-FKann9IZiOH-73" style="edgeStyle=orthogonalEdgeStyle;curved=1;rounded=0;orthogonalLoop=1;jettySize=auto;html=1;exitX=1;exitY=0.5;exitDx=0;exitDy=0;entryX=1;entryY=0.5;entryDx=0;entryDy=0;elbow=vertical;" parent="1" source="rekhB66va6viN4RXd3Ok-168" target="4g2gMuMm-FKann9IZiOH-29" edge="1">
                    <mxGeometry relative="1" as="geometry"/>
                </mxCell>
                <mxCell id="4g2gMuMm-FKann9IZiOH-74" style="edgeStyle=orthogonalEdgeStyle;curved=1;rounded=0;orthogonalLoop=1;jettySize=auto;html=1;exitX=1;exitY=0.5;exitDx=0;exitDy=0;entryX=1;entryY=0.5;entryDx=0;entryDy=0;elbow=vertical;" parent="1" source="rekhB66va6viN4RXd3Ok-161" target="rekhB66va6viN4RXd3Ok-165" edge="1">
                    <mxGeometry relative="1" as="geometry"/>
                </mxCell>
                <mxCell id="4g2gMuMm-FKann9IZiOH-75" style="edgeStyle=orthogonalEdgeStyle;curved=1;rounded=0;orthogonalLoop=1;jettySize=auto;html=1;exitX=0;exitY=0.5;exitDx=0;exitDy=0;entryX=1;entryY=0.5;entryDx=0;entryDy=0;elbow=vertical;" parent="1" source="rekhB66va6viN4RXd3Ok-208" target="rekhB66va6viN4RXd3Ok-238" edge="1">
                    <mxGeometry relative="1" as="geometry"/>
                </mxCell>
                <mxCell id="4g2gMuMm-FKann9IZiOH-76" style="edgeStyle=orthogonalEdgeStyle;curved=1;rounded=0;orthogonalLoop=1;jettySize=auto;html=1;exitX=0;exitY=0.5;exitDx=0;exitDy=0;entryX=1;entryY=0.5;entryDx=0;entryDy=0;elbow=vertical;" parent="1" source="rekhB66va6viN4RXd3Ok-198" target="rekhB66va6viN4RXd3Ok-238" edge="1">
                    <mxGeometry relative="1" as="geometry">
                        <Array as="points">
                            <mxPoint x="1175" y="975"/>
                            <mxPoint x="1175" y="615"/>
                        </Array>
                    </mxGeometry>
                </mxCell>
                <mxCell id="4g2gMuMm-FKann9IZiOH-77" style="edgeStyle=orthogonalEdgeStyle;curved=1;rounded=0;orthogonalLoop=1;jettySize=auto;html=1;exitX=0;exitY=0.5;exitDx=0;exitDy=0;entryX=1;entryY=0.5;entryDx=0;entryDy=0;elbow=vertical;" parent="1" source="rekhB66va6viN4RXd3Ok-201" target="rekhB66va6viN4RXd3Ok-178" edge="1">
                    <mxGeometry relative="1" as="geometry"/>
                </mxCell>
                <mxCell id="4g2gMuMm-FKann9IZiOH-78" style="edgeStyle=orthogonalEdgeStyle;curved=1;rounded=0;orthogonalLoop=1;jettySize=auto;html=1;exitX=0;exitY=0.5;exitDx=0;exitDy=0;entryX=1;entryY=0.5;entryDx=0;entryDy=0;elbow=vertical;" parent="1" source="rekhB66va6viN4RXd3Ok-211" target="rekhB66va6viN4RXd3Ok-165" edge="1">
                    <mxGeometry relative="1" as="geometry"/>
                </mxCell>
                <mxCell id="4g2gMuMm-FKann9IZiOH-80" style="edgeStyle=orthogonalEdgeStyle;curved=1;rounded=0;orthogonalLoop=1;jettySize=auto;html=1;exitX=1;exitY=0.5;exitDx=0;exitDy=0;entryX=0;entryY=0.5;entryDx=0;entryDy=0;elbow=vertical;" parent="1" source="rekhB66va6viN4RXd3Ok-320" target="rekhB66va6viN4RXd3Ok-109" edge="1">
                    <mxGeometry relative="1" as="geometry"/>
                </mxCell>
                <mxCell id="4g2gMuMm-FKann9IZiOH-81" style="edgeStyle=orthogonalEdgeStyle;curved=1;rounded=0;orthogonalLoop=1;jettySize=auto;html=1;exitX=0;exitY=0.5;exitDx=0;exitDy=0;elbow=vertical;" parent="1" source="rekhB66va6viN4RXd3Ok-323" target="rekhB66va6viN4RXd3Ok-304" edge="1">
                    <mxGeometry relative="1" as="geometry"/>
                </mxCell>
                <mxCell id="4g2gMuMm-FKann9IZiOH-83" style="edgeStyle=orthogonalEdgeStyle;curved=1;rounded=0;orthogonalLoop=1;jettySize=auto;html=1;exitX=0;exitY=0.5;exitDx=0;exitDy=0;elbow=vertical;entryX=0;entryY=0.5;entryDx=0;entryDy=0;" parent="1" source="rekhB66va6viN4RXd3Ok-234" target="rekhB66va6viN4RXd3Ok-185" edge="1">
                    <mxGeometry relative="1" as="geometry"/>
                </mxCell>
                <mxCell id="4g2gMuMm-FKann9IZiOH-84" style="edgeStyle=orthogonalEdgeStyle;curved=1;rounded=0;orthogonalLoop=1;jettySize=auto;html=1;exitX=0;exitY=0.5;exitDx=0;exitDy=0;entryX=1;entryY=0.5;entryDx=0;entryDy=0;elbow=vertical;" parent="1" source="rekhB66va6viN4RXd3Ok-317" target="rekhB66va6viN4RXd3Ok-215" edge="1">
                    <mxGeometry relative="1" as="geometry"/>
                </mxCell>
                <mxCell id="4g2gMuMm-FKann9IZiOH-85" style="edgeStyle=orthogonalEdgeStyle;curved=1;rounded=0;orthogonalLoop=1;jettySize=auto;html=1;exitX=1;exitY=0.5;exitDx=0;exitDy=0;entryX=0;entryY=0.5;entryDx=0;entryDy=0;elbow=vertical;" parent="1" source="4g2gMuMm-FKann9IZiOH-54" target="4g2gMuMm-FKann9IZiOH-29" edge="1">
                    <mxGeometry relative="1" as="geometry"/>
                </mxCell>
                <mxCell id="4g2gMuMm-FKann9IZiOH-86" style="edgeStyle=orthogonalEdgeStyle;curved=1;rounded=0;orthogonalLoop=1;jettySize=auto;html=1;exitX=0;exitY=0.5;exitDx=0;exitDy=0;entryX=0;entryY=0.5;entryDx=0;entryDy=0;elbow=vertical;" parent="1" source="4g2gMuMm-FKann9IZiOH-57" target="rekhB66va6viN4RXd3Ok-238" edge="1">
                    <mxGeometry relative="1" as="geometry">
                        <Array as="points">
                            <mxPoint x="100" y="1655"/>
                            <mxPoint x="100" y="1390"/>
                            <mxPoint x="560" y="1390"/>
                            <mxPoint x="560" y="615"/>
                        </Array>
                    </mxGeometry>
                </mxCell>
                <mxCell id="4g2gMuMm-FKann9IZiOH-87" style="edgeStyle=orthogonalEdgeStyle;curved=1;rounded=0;orthogonalLoop=1;jettySize=auto;html=1;exitX=0;exitY=0.5;exitDx=0;exitDy=0;entryX=0;entryY=0.5;entryDx=0;entryDy=0;elbow=vertical;" parent="1" source="rekhB66va6viN4RXd3Ok-228" target="rekhB66va6viN4RXd3Ok-215" edge="1">
                    <mxGeometry relative="1" as="geometry"/>
                </mxCell>
                <mxCell id="4g2gMuMm-FKann9IZiOH-88" style="edgeStyle=orthogonalEdgeStyle;curved=1;rounded=0;orthogonalLoop=1;jettySize=auto;html=1;exitX=1;exitY=0.5;exitDx=0;exitDy=0;entryX=0;entryY=0.5;entryDx=0;entryDy=0;elbow=vertical;" parent="1" source="rekhB66va6viN4RXd3Ok-231" target="rekhB66va6viN4RXd3Ok-238" edge="1">
                    <mxGeometry relative="1" as="geometry"/>
                </mxCell>
                <mxCell id="2" value="Text" style="text;html=1;align=center;verticalAlign=middle;resizable=0;points=[];autosize=1;strokeColor=none;fillColor=none;" parent="1" vertex="1">
                    <mxGeometry x="250" y="700" width="50" height="30" as="geometry"/>
                </mxCell>
            </root>
        </mxGraphModel>
    </diagram>
</mxfile>